<?xml version="1.0" encoding="UTF-8"?><svg id="a" xmlns="http://www.w3.org/2000/svg" viewBox="0 0 27.192 44.347"><path d="M16.342,11.329c1.592,1.533,3.1,3.221,4.749,4.664,1.517,1.327,3.428,2.458,4.86,3.772,2.853,2.617.335,5.585-3.005,5.402-.83-.046-1.771-.391-2.635-.373l-4.733.37c1.359,3.271,2.196,7.094,3.693,10.273.759,1.611,1.917,3.09,2.801,4.632.218.38.991,1.65,1.038,1.967.099.663-1.456,2.224-2.087,2.31-.195.027-1.179-.209-1.362-.308-.545-.293-1.893-4.09-2.266-4.927-.635-1.425-1.391-2.801-1.996-4.238-.452-1.075-2.43-7.396-3.132-7.546-1.522,1.347-2.933,2.811-4.481,4.133-1.15.982-3.932,3.46-5.333,3.541-.32.019-1.058-.047-1.304-.236-.09-.069-.761-1.916-.79-2.115-.107-.713.282-3.571.353-4.547.378-5.153,1.013-10.32,1.316-15.468.111-1.876-.023-3.924.123-5.752.106-1.332.508-2.368.345-3.826-.056-.502-.705-2.077-.532-2.352C2.103.483,3.419-.061,3.74.006c.446.092,1.999,1.88,2.484,2.319,3.391,3.066,6.791,5.801,10.117,9.004ZM22.75,20.986c-3.453-2.255-6.428-5.318-9.272-8.291-.632-.66-1.205-1.559-1.854-2.223-1.956-2.001-4.459-3.532-6.724-5.154-.561-.195-.568.654-.597,1.076-.209,3.094.278,6.798.251,9.959-.026,3.05-.71,6.029-.851,8.983-.073,1.528.142,2.999.365,4.5.098.114,1.111-.612,1.256-.721,2.463-1.855,4.008-4.841,6.299-6.889,3.42-.1,6.826-.845,10.232-.188.545-.038.992-.507.894-1.053Z" fill="#fff"/><path d="M15.812,11.24c1.573,1.515,3.063,3.183,4.693,4.609,1.499,1.312,3.388,2.429,4.803,3.727,2.82,2.586.331,5.519-2.97,5.338-.82-.045-1.75-.386-2.604-.368l-4.677.365c1.343,3.233,2.17,7.01,3.65,10.151.75,1.592,1.894,3.054,2.768,4.578.215.376.979,1.63,1.026,1.944.098.655-1.439,2.198-2.062,2.283-.193.026-1.165-.207-1.346-.305-.538-.29-1.871-4.042-2.239-4.869-.628-1.408-1.375-2.768-1.973-4.188-.447-1.062-2.401-7.309-3.095-7.457-1.504,1.331-2.899,2.778-4.428,4.084-1.136.97-3.886,3.419-5.27,3.499-.316.018-1.046-.047-1.289-.233-.088-.068-.752-1.894-.781-2.09-.106-.705.278-3.529.349-4.494.373-5.092,1.001-10.198,1.301-15.286.109-1.854-.022-3.878.122-5.684.105-1.317.502-2.34.341-3.781-.055-.496-.696-2.053-.526-2.324C1.742.523,3.042-.015,3.359.051c.441.091,1.975,1.858,2.455,2.292,3.351,3.03,6.711,5.732,9.998,8.898ZM22.145,20.783c-3.412-2.228-6.352-5.255-9.163-8.193-.624-.653-1.191-1.541-1.832-2.196-1.933-1.977-4.406-3.49-6.645-5.093-.554-.193-.562.646-.59,1.063-.207,3.057.275,6.718.248,9.841-.026,3.014-.702,5.958-.84,8.877-.072,1.51.14,2.964.361,4.447.097.113,1.098-.605,1.241-.713,2.434-1.833,3.961-4.784,6.224-6.808,3.379-.098,6.746-.835,10.111-.186.539-.038.98-.501.884-1.041Z"/><path d="M22.145,20.783c.096.54-.345,1.003-.884,1.041-3.366-.649-6.732.087-10.111.186-2.263,2.023-3.791,4.974-6.224,6.808-.143.108-1.144.826-1.241.713-.221-1.483-.433-2.937-.361-4.447.139-2.919.815-5.863.84-8.877.027-3.124-.455-6.784-.248-9.841.028-.417.036-1.256.59-1.063,2.239,1.603,4.712,3.116,6.645,5.093.641.656,1.207,1.544,1.832,2.196,2.811,2.938,5.751,5.965,9.163,8.193Z" fill="#fff"/></svg>