<?xml version="1.0" encoding="UTF-8"?>
<svg version="1.1" xmlns="http://www.w3.org/2000/svg" width="9896" height="1839">
<path d="M0 0 C1.8627374 -0.00406327 3.72547442 -0.0083012 5.58821106 -0.01269531 C11.39605774 -0.02383975 17.20386487 -0.0226432 23.01171875 -0.01953125 C24.50781803 -0.01935186 24.50781803 -0.01935186 26.03414154 -0.01916885 C57.96413345 -0.01434674 89.81484278 0.30025869 121.69921875 2.16796875 C122.59948792 2.21888672 123.49975708 2.26980469 124.42730713 2.32226562 C212.99037353 7.33239009 302.13067674 20.88989193 383.69921875 57.16796875 C384.49183105 57.51537109 385.28444336 57.86277344 386.10107422 58.22070312 C415.51057885 71.1632479 442.79058897 88.97580788 467.69921875 109.16796875 C468.23417969 109.59706543 468.76914062 110.02616211 469.3203125 110.46826172 C477.6924322 117.22583144 485.38727297 124.64996836 493.01171875 132.23046875 C493.93082031 133.14030518 494.84992187 134.0501416 495.796875 134.98754883 C501.85650381 141.07508958 507.35867694 147.4458137 512.69921875 154.16796875 C513.7475702 155.44600741 514.7980531 156.72230354 515.8515625 157.99609375 C522.70360939 166.37707021 528.93001038 175.008532 534.69921875 184.16796875 C535.0657959 184.74949707 535.43237305 185.33102539 535.81005859 185.93017578 C538.53395207 190.28913856 541.13919834 194.71107787 543.69921875 199.16796875 C544.15554688 199.96025879 544.611875 200.75254883 545.08203125 201.56884766 C587.75278385 276.22840309 600.59600591 364.21503999 560.49603271 748.29521847 C557.71857271 761.99807777 554.96870302 775.7064707 552.22593594 789.41631126 C551.38759254 793.6063666 550.54678495 797.79591537 549.703475 801.98497391 C549.0808479 805.07954209 548.46055215 808.17457774 547.83984375 811.26953125 C547.61901627 812.36330078 547.39818878 813.45707031 547.17066956 814.58398438 C546.97416306 815.56641113 546.77765656 816.54883789 546.57519531 817.56103516 C546.40457581 818.40969147 546.2339563 819.25834778 546.0581665 820.13272095 C545.64132372 822.15179276 545.64132372 822.15179276 545.69921875 824.16796875 C556.20473258 829.42072567 572.66571734 822.5482084 583.03125 819.09765625 C608.97205094 810.19100688 633.92094344 798.87205997 658.69921875 787.16796875 C659.818125 786.64009766 660.93703125 786.11222656 662.08984375 785.56835938 C690.90276662 771.92785234 719.41195948 757.67976581 746.69921875 741.16796875 C748.59881767 740.02971313 750.49855846 738.89169425 752.3984375 737.75390625 C773.663295 724.96350434 794.5266436 711.6241446 814.69921875 697.16796875 C815.48941406 696.6044873 816.27960938 696.04100586 817.09375 695.46044922 C826.78026938 688.55028288 836.3275693 681.49976913 845.69921875 674.16796875 C846.85005342 673.2757746 848.00110107 672.38385512 849.15234375 671.4921875 C855.56169405 666.51116627 861.85391768 661.42078379 868.0222168 656.14379883 C871.30383778 653.33689341 874.63425035 650.60986148 878.01171875 647.91796875 C884.86925392 642.33440238 891.21627385 636.21130639 897.62646484 630.12744141 C901.57955677 626.39039596 905.57236916 622.69563873 909.56347656 618.99926758 C915.53023675 613.44849983 921.24212065 607.76844763 926.55859375 601.58984375 C928.78381803 599.07225423 931.06889785 596.62139504 933.36889648 594.17236328 C939.43249447 587.71204886 945.18127273 581.10535234 950.69921875 574.16796875 C951.61863752 573.03942333 952.53927911 571.91187337 953.4609375 570.78515625 C961.27224864 561.1946092 968.60041025 551.29591052 975.69921875 541.16796875 C976.13975586 540.53955078 976.58029297 539.91113281 977.03417969 539.26367188 C1016.4631895 482.5671566 1042.23873035 415.19504941 1047.69921875 346.16796875 C1047.78461914 345.12455322 1047.87001953 344.0811377 1047.95800781 343.00610352 C1054.27883508 258.58681107 1035.43986068 167.98012629 976.1640625 52.6953125 C961.4761658 26.47417094 961.4761658 26.47417094 964.69921875 14.16796875 C966.18424988 11.56394577 966.18424988 11.56394577 968.69921875 9.16796875 C971.82661124 8.6667878 974.4111101 8.49359702 977.5402832 8.53546143 C978.45114174 8.52781132 979.36200027 8.5201612 980.30046058 8.51227927 C983.38820378 8.49254337 986.47474753 8.50873247 989.5625 8.52441406 C991.80275843 8.51757976 994.04301104 8.50854725 996.28325272 8.49751282 C1002.52273009 8.47321936 1008.76185558 8.4804238 1015.00135517 8.49200153 C1021.1587103 8.50081908 1027.31600817 8.48042419 1033.47333446 8.46326587 C1046.37232872 8.42816357 1059.27125039 8.41678624 1072.17028809 8.41845703 C1085.20229059 8.42007831 1098.23424416 8.41385824 1111.26623535 8.39599609 C1112.49374323 8.39431904 1112.49374323 8.39431904 1113.74604926 8.39260811 C1118.78535957 8.38564696 1123.82466936 8.37834214 1128.86397904 8.37093866 C1135.85952314 8.36071481 1142.85506788 8.35094176 1149.85061273 8.34125322 C1151.64877046 8.33876075 1153.44692817 8.33625335 1155.24508587 8.33373123 C1167.41227548 8.31673709 1179.5794633 8.30358602 1191.74666047 8.29342508 C1252.30602427 8.24268296 1312.86421185 8.03470829 1373.42297715 7.77464494 C1394.20298103 7.68546356 1414.98300266 7.60365411 1435.76306152 7.52838135 C1436.79132431 7.52464937 1436.79132431 7.52464937 1437.84036008 7.520842 C1451.69804688 7.4705522 1465.55573657 7.42111789 1479.41343118 7.37302575 C1487.02871427 7.3465917 1494.64399622 7.31984141 1502.25927734 7.29284668 C1503.28602809 7.28921608 1503.28602809 7.28921608 1504.33352127 7.28551213 C1526.51616096 7.20694235 1548.69865271 7.10772653 1570.88116185 6.99872968 C1594.10914285 6.884741 1617.33708343 6.79653589 1640.56527925 6.73650813 C1654.16936575 6.70053565 1667.77303632 6.64422873 1681.37691328 6.56031899 C1690.54563491 6.50568341 1699.71420928 6.47642517 1708.8830891 6.46785136 C1714.14056193 6.46218379 1719.39734886 6.44508899 1724.65462303 6.39743471 C1729.44618099 6.35423076 1734.23668181 6.34308514 1739.02840164 6.35795406 C1740.75943355 6.3576043 1742.49051171 6.34533111 1744.22135922 6.32006332 C1757.0906281 6.14155029 1757.0906281 6.14155029 1761.01572084 8.64609528 C1764.48862634 12.5245643 1766.25150526 17.26738572 1767.73828125 22.19921875 C1767.98325348 22.97358276 1768.22822571 23.74794678 1768.48062134 24.54577637 C1771.52901104 34.45454508 1773.81242377 44.55689955 1776.07421875 54.66796875 C1776.30877777 55.70609711 1776.54333679 56.74422546 1776.78500366 57.81381226 C1789.57921184 114.51273076 1799.75252198 172.54117994 1799.90234375 230.8359375 C1799.90517113 231.60252497 1799.9079985 232.36911243 1799.91091156 233.15892982 C1799.92577489 237.23461857 1799.93507908 241.31027325 1799.93945312 245.38598633 C1799.94378687 248.66149344 1799.95749662 251.93672955 1799.98046875 255.2121582 C1800.19178352 286.02714097 1798.5903383 316.59874715 1794.01171875 347.10546875 C1793.88671997 347.9578714 1793.76172119 348.81027405 1793.63293457 349.68850708 C1786.15677323 400.37746049 1772.52800486 450.29356774 1751.69921875 497.16796875 C1751.23402832 498.21645996 1750.76883789 499.26495117 1750.28955078 500.34521484 C1728.68579927 548.71365415 1700.78349009 593.77841536 1666.33203125 634.0625 C1663.81583658 637.01217224 1661.38028906 640.02267293 1658.94921875 643.04296875 C1655.95841923 646.72026851 1652.87030631 650.12976292 1649.4543457 653.41186523 C1647.8213204 655.04579917 1646.34429965 656.72810302 1644.859375 658.49609375 C1639.73895074 664.38633892 1634.17294015 669.84333585 1628.64770508 675.34985352 C1626.76593601 677.2262635 1624.88957137 679.10795844 1623.01367188 680.99023438 C1617.07710579 686.93009492 1611.11616635 692.74265043 1604.69921875 698.16796875 C1603.09153502 699.62242392 1601.4868216 701.0801777 1599.88671875 702.54296875 C1595.62041286 706.38847057 1591.24752575 710.06528141 1586.78125 713.67578125 C1584.56002506 715.47190484 1582.35021498 717.27805411 1580.1484375 719.09765625 C1557.15428599 738.04354165 1532.84320855 755.20468428 1507.69921875 771.16796875 C1506.8577832 771.70276855 1506.01634766 772.23756836 1505.14941406 772.78857422 C1484.25862625 786.01516848 1462.70487485 797.90856484 1440.69921875 809.16796875 C1439.67199707 809.69801514 1439.67199707 809.69801514 1438.62402344 810.23876953 C1434.01439759 812.61579591 1429.36848699 814.91049706 1424.69921875 817.16796875 C1423.75014648 817.62800293 1422.80107422 818.08803711 1421.82324219 818.56201172 C1392.91645679 832.49400413 1363.20674791 844.5950622 1333.55908203 856.84326172 C1309.00447807 866.98815524 1284.6110043 877.41698885 1260.51171875 888.60546875 C1259.59817123 889.0280043 1259.59817123 889.0280043 1258.66616821 889.45907593 C1250.16628599 893.3989162 1241.8996311 897.64538913 1233.69921875 902.16796875 C1255.89973129 925.47850692 1311.84213679 926.21637394 1341.98828125 931.20703125 C1412.09243703 942.83140467 1480.72284856 963.32346556 1545.00976562 993.89306641 C1547.68532214 995.16138123 1550.37042843 996.40710293 1553.05859375 997.6484375 C1593.90618194 1016.62389606 1633.34344069 1040.95799004 1667.69921875 1070.16796875 C1668.49223389 1070.83578369 1668.49223389 1070.83578369 1669.30126953 1071.51708984 C1681.91835267 1082.14332591 1693.88768213 1093.2738882 1705.57421875 1104.91796875 C1706.91238647 1106.2491272 1706.91238647 1106.2491272 1708.27758789 1107.60717773 C1713.29139791 1112.6332223 1718.11618139 1117.74646916 1722.69921875 1123.16796875 C1723.23546875 1123.79751465 1723.77171875 1124.42706055 1724.32421875 1125.07568359 C1743.49526942 1147.72349855 1760.01617781 1171.89589859 1774.40478516 1197.83740234 C1775.52643341 1199.85687692 1776.66297098 1201.86684688 1777.8046875 1203.875 C1817.20597333 1274.95979403 1831.513445 1359.0944697 1831.08614349 1439.54414368 C1831.07396319 1441.96884146 1831.0665814 1444.39351798 1831.06011963 1446.8182373 C1830.98943885 1469.89011377 1830.67913674 1492.85794087 1827.97784424 1515.79620361 C1827.67644592 1518.3618197 1827.38666206 1520.92862013 1827.09716797 1523.49560547 C1818.94338123 1594.94415789 1802.23843108 1664.64278225 1780.69921875 1733.16796875 C1780.40492981 1734.10539917 1780.11064087 1735.04282959 1779.80743408 1736.00866699 C1760.06364128 1798.80354622 1760.06364128 1798.80354622 1750.69921875 1808.16796875 C1747.57020452 1808.35835501 1744.53042905 1808.41855096 1741.40055847 1808.39402771 C1739.91097642 1808.39431281 1739.91097642 1808.39431281 1738.39130181 1808.39460367 C1734.97587545 1808.39284893 1731.56065308 1808.37668133 1728.14526367 1808.36108398 C1725.62731616 1808.35717254 1723.109367 1808.35422371 1720.59141731 1808.35213661 C1714.95956593 1808.34561012 1709.32777497 1808.33299953 1703.69594765 1808.31556892 C1694.1964133 1808.28642586 1684.69688032 1808.27149643 1675.1973114 1808.25889587 C1673.48631511 1808.25658933 1671.77531882 1808.25428136 1670.06432253 1808.25197202 C1667.41253551 1808.24839956 1664.76074847 1808.24484662 1662.10896133 1808.24136171 C1656.48918589 1808.2338936 1650.86941347 1808.22525072 1645.24964092 1808.21586813 C1611.23400868 1808.15959373 1577.21856272 1808.17708055 1543.20291864 1808.20944435 C1531.11763028 1808.22091725 1519.03234154 1808.23193315 1506.947052 1808.24209595 C1506.22678326 1808.24270327 1505.50651453 1808.24331059 1504.76441946 1808.24393632 C1481.74299608 1808.26317207 1458.72159531 1808.26900187 1435.70016479 1808.26351929 C1434.5807563 1808.26325798 1434.5807563 1808.26325798 1433.4387335 1808.26299139 C1417.44752697 1808.25918497 1401.45632177 1808.25321393 1385.46511675 1808.24534015 C1377.75954087 1808.2415602 1370.05396484 1808.23822159 1362.34838867 1808.23510742 C1361.58312083 1808.23478992 1360.81785298 1808.23447241 1360.0293952 1808.23414528 C1334.88434881 1808.22391091 1309.73942499 1808.24359145 1284.59440255 1808.27736239 C1258.3952541 1808.31239318 1232.19625986 1808.3180004 1205.99710295 1808.28646756 C1202.30598812 1808.28203758 1198.61487299 1808.27794054 1194.92375755 1808.27404594 C1194.19808747 1808.2732696 1193.47241738 1808.27249326 1192.72475729 1808.27169339 C1181.13250956 1808.26014503 1169.54051412 1808.27928088 1157.94831121 1808.31049971 C1146.3750382 1808.34101652 1134.80221509 1808.3381174 1123.22894374 1808.30331136 C1116.98172713 1808.28548879 1110.73539872 1808.28210391 1104.4882412 1808.31819344 C1098.7681168 1808.35092345 1093.04960306 1808.34178016 1087.32955077 1808.3001266 C1085.26974302 1808.29236016 1083.20980836 1808.29957874 1081.15012924 1808.32387222 C1067.20064613 1808.47720786 1058.20297896 1806.11439518 1046.69921875 1798.16796875 C1045.0685981 1797.14674354 1043.43548045 1796.12945718 1041.796875 1795.12109375 C1040.4466176 1794.22787141 1039.10144485 1793.32691054 1037.76171875 1792.41796875 C1037.02139404 1791.919021 1036.28106934 1791.42007324 1035.51831055 1790.90600586 C1010.79093313 1774.05155285 986.93863869 1754.0168041 968.69921875 1730.16796875 C967.85175715 1729.11882678 967.00131142 1728.07209067 966.1484375 1727.02734375 C922.32851012 1673.0107207 900.55416754 1604.49875014 892.69921875 1536.16796875 C892.5496875 1534.94142578 892.40015625 1533.71488281 892.24609375 1532.45117188 C886.8358259 1486.34729453 887.72385014 1437.74187961 892.44921875 1391.61328125 C892.7070106 1389.09175471 892.95544376 1386.5694132 893.203125 1384.046875 C895.31130529 1362.85486391 898.22894774 1341.81353735 901.63671875 1320.79296875 C901.79385345 1319.81721893 901.95098816 1318.84146912 902.11288452 1317.83615112 C903.2332483 1310.9326848 904.43426848 1304.04638887 905.69921875 1297.16796875 C905.88253754 1296.16745483 906.06585632 1295.16694092 906.25473022 1294.1361084 C910.66469597 1270.55039106 916.84859777 1247.38047873 922.83578491 1224.1583252 C925.58256596 1213.50412857 928.30542629 1202.84380559 931.03057289 1192.18405914 C931.9291176 1188.66984999 932.8283116 1185.15580745 933.72758484 1181.64178467 C952.37023535 1112.5417104 952.37023535 1112.5417104 964.69921875 1042.16796875 C876.24788916 1040.56043725 785.99094601 1079.24139289 711.3515625 1124.56396484 C708.69842557 1126.16844843 706.03001332 1127.74400332 703.35546875 1129.3125 C693.52087052 1135.09994226 683.98582571 1141.18060502 674.67333984 1147.77490234 C672.64490477 1149.20629617 670.60503032 1150.62005592 668.5625 1152.03125 C651.434743 1163.91634135 635.1135302 1176.87386268 619.32421875 1190.48046875 C618.76001221 1190.96523682 618.19580566 1191.45000488 617.61450195 1191.94946289 C606.55946623 1201.54035754 596.04087454 1211.66101372 585.71289062 1222.02392578 C583.8084337 1223.93379869 581.89861056 1225.83819024 579.98828125 1227.7421875 C574.01257025 1233.71435799 568.13902087 1239.6963177 562.69921875 1246.16796875 C561.7507023 1247.25175749 560.80022143 1248.33383055 559.84765625 1249.4140625 C552.70469349 1257.60491445 546.03756479 1266.09572155 539.51147461 1274.78344727 C538.16129919 1276.55997472 536.79488295 1278.32418169 535.42016602 1280.08178711 C529.20758665 1288.0254436 523.45193284 1296.19749778 517.88671875 1304.60546875 C517.45512451 1305.25515625 517.02353027 1305.90484375 516.57885742 1306.57421875 C508.8656702 1318.20005679 501.53833282 1330.00350077 494.69921875 1342.16796875 C494.19487305 1343.06386719 493.69052734 1343.95976563 493.17089844 1344.8828125 C450.25920796 1421.5205371 424.00995768 1507.00399286 409.69921875 1635.16796875 C409.63756531 1635.8962085 409.57591187 1636.62444824 409.51239014 1637.37475586 C407.72719786 1658.60000847 407.44999063 1679.86160018 407.33766174 1701.1517868 C407.32448254 1703.18967913 407.30431477 1705.22738571 407.28210449 1707.26519775 C407.11956084 1724.65871002 408.21892898 1741.27644271 411.22364807 1758.41723633 C416.03597572 1786.25205938 416.03597572 1786.25205938 410.05078125 1796.45703125 C402.55874389 1805.94117103 391.30798213 1807.55471261 379.99890137 1808.9241333 C372.4562935 1809.72387635 364.8712299 1810.10488123 357.30102539 1810.5456543 C354.19434847 1810.72710283 351.08840795 1810.91845422 347.98242188 1811.11132812 C341.55658056 1811.50274381 335.12901411 1811.84835552 328.69921875 1812.16796875 C327.6723999 1812.21922913 326.64558105 1812.2704895 325.58764648 1812.32330322 C299.68714154 1813.55142306 273.74713898 1813.41082385 247.82421875 1813.41796875 C246.5967178 1813.41870518 245.36921684 1813.4194416 244.10451889 1813.42020035 C193.73221407 1813.44468004 143.44806736 1812.24192667 93.1100626 1810.4916687 C81.42687738 1810.08668141 69.74279737 1809.71020301 58.05859375 1809.3359375 C57.01520844 1809.30246971 55.97182312 1809.26900192 54.89682007 1809.23451996 C48.69784411 1809.03573683 42.49884527 1808.83767777 36.29983521 1808.63996124 C33.27467129 1808.54338226 30.24951692 1808.44650951 27.22436523 1808.34954834 C-39.41960253 1806.21446619 -106.11191286 1804.6593231 -172.76098633 1807.45629883 C-184.1354028 1807.93286245 -195.51080543 1808.32461758 -206.89453125 1808.48046875 C-208.00485718 1808.51019775 -209.11518311 1808.53992676 -210.25915527 1808.57055664 C-219.73572655 1808.63949827 -226.58563196 1806.3660401 -233.55078125 1799.79296875 C-234.3396875 1799.06335937 -235.12859375 1798.33375 -235.94140625 1797.58203125 C-237.10929688 1796.38707031 -237.10929688 1796.38707031 -238.30078125 1795.16796875 C-239.1613506 1794.3767899 -240.02191995 1793.58561106 -240.90856716 1792.77045709 C-244.66327175 1788.17768701 -243.99049842 1782.77838545 -243.93558174 1777.11409277 C-243.94346294 1775.8816806 -243.95134415 1774.64926843 -243.95946417 1773.37951044 C-243.9763343 1769.94471461 -243.97072894 1766.51126546 -243.955823 1763.07654679 C-243.94508259 1759.33137546 -243.96334948 1755.58632716 -243.97791705 1751.84118429 C-243.99953007 1745.24749147 -244.0024435 1738.65399191 -243.99334253 1732.06027298 C-243.97980056 1722.1891624 -243.9949197 1712.3182386 -244.0156682 1702.44714797 C-244.05016007 1685.62566118 -244.06070705 1668.80423417 -244.05830765 1651.98271561 C-244.05594173 1634.92918308 -244.06431453 1617.8757071 -244.08584023 1600.82218742 C-244.08718945 1599.74616599 -244.08853868 1598.67014456 -244.08992879 1597.56151642 C-244.09545354 1593.17923251 -244.10104592 1588.79694869 -244.10672657 1584.41466497 C-244.16593675 1538.66370455 -244.1892698 1492.91276884 -244.19957299 1447.16177439 C-244.20068512 1442.23482902 -244.20180473 1437.30788366 -244.20292974 1432.38093829 C-244.20320486 1431.1583503 -244.20347999 1429.93576231 -244.20376345 1428.67612621 C-244.20997937 1401.6010053 -244.2244835 1374.52589083 -244.2402802 1347.45077407 C-244.24675536 1336.30716724 -244.25300746 1325.16356027 -244.25926775 1314.01995331 C-244.25996016 1312.78873035 -244.26065258 1311.55750738 -244.26136597 1310.28897463 C-244.30094445 1239.71775791 -244.32877666 1169.14654449 -244.33318424 1098.57531643 C-244.33335772 1095.93338988 -244.333532 1093.29146333 -244.3337071 1090.64953679 C-244.33448922 1078.72106992 -244.3352118 1066.79260305 -244.33592994 1054.86413618 C-244.33625201 1049.54477285 -244.33658164 1044.22540953 -244.33691275 1038.90604621 C-244.3370764 1036.24360642 -244.33723618 1033.58116663 -244.33739208 1030.91872684 C-244.34108654 968.06625788 -244.35597912 905.21383239 -244.41619873 842.36138916 C-244.41714922 841.36888358 -244.41714922 841.36888358 -244.41811892 840.35632738 C-244.43795432 819.68278165 -244.45920397 799.00923741 -244.48071289 778.33569336 C-244.54600958 715.55937783 -244.60758001 652.78308879 -244.62272549 590.00673771 C-244.62303231 588.74349755 -244.62333913 587.4802574 -244.62365526 586.17873723 C-244.6302527 558.44953865 -244.63334886 530.72034065 -244.6332013 502.99114131 C-244.63318419 493.06944559 -244.63344606 483.14774989 -244.63385162 473.22605419 C-244.63395099 470.75771396 -244.63403702 468.28937374 -244.63410964 465.82103351 C-244.63542109 426.4651063 -244.67247887 387.10931382 -244.72748607 347.75342816 C-244.78263041 308.12069337 -244.79935283 268.48813427 -244.76336301 228.85537191 C-244.7583952 223.38143406 -244.75384409 217.90749593 -244.74954033 212.43355751 C-244.74868013 211.36049295 -244.74781993 210.28742839 -244.74693367 209.18184672 C-244.73439633 192.17543356 -244.76219337 175.1693341 -244.80670063 158.16298461 C-244.84960331 141.44934153 -244.84984057 124.73615268 -244.80438385 108.0225113 C-244.77900267 98.21790904 -244.7865566 88.41465916 -244.84248815 78.61017602 C-244.87634991 72.10100635 -244.86679486 65.59284032 -244.82174237 59.08374068 C-244.79740779 55.39157738 -244.79164033 51.7020719 -244.83936417 48.01007676 C-245.14364816 22.84406582 -245.14364816 22.84406582 -237.52012247 15.0327726 C-232.13638821 10.05475133 -227.17677417 6.84566361 -219.78729248 6.58615112 C-219.14632952 6.5597921 -218.50536656 6.53343308 -217.84498048 6.5062753 C-215.70389136 6.42164803 -213.56267786 6.3570942 -211.42089844 6.29248047 C-209.88074856 6.23574852 -208.34064367 6.17778399 -206.80058289 6.11868286 C-202.61062304 5.96146389 -198.42024039 5.82172343 -194.22956371 5.68514395 C-189.80277388 5.53799225 -185.37656019 5.37514261 -180.95025635 5.21414185 C-173.47869552 4.94455454 -166.00683775 4.68522693 -158.53466797 4.43310547 C-148.149934 4.08269494 -137.76590672 3.71415629 -127.38194418 3.34167838 C-119.18314607 3.04829936 -110.98416393 2.7601099 -102.78515625 2.47265625 C-101.93460128 2.44278673 -101.08404631 2.4129172 -100.20771694 2.38214254 C-32.78610864 0.01872847 -32.78610864 0.01872847 0 0 Z " fill="#FFFFFF" transform="translate(243.30078125,18.83203125)"/>
<path d="M0 0 C5.8179024 0.01139349 11.63562174 0.00460812 17.45351791 -0.0068779 C44.8613201 -0.05279034 72.13532076 0.437719 99.48486328 2.26074219 C100.65178711 2.33635376 101.81871094 2.41196533 103.02099609 2.48986816 C109.76466921 2.93303687 116.50040949 3.44527284 123.23486328 4.01074219 C124.73113251 4.13479431 124.73113251 4.13479431 126.25762939 4.26135254 C220.58136993 12.15429109 314.34036295 29.10884607 404.48486328 58.26074219 C405.25282227 58.50848389 406.02078125 58.75622559 406.81201172 59.01147461 C479.65174492 82.57315251 553.6448374 114.50286936 614.86914062 161.03759766 C616.40414433 162.19963582 617.95391026 163.3420976 619.50439453 164.48339844 C630.77832292 172.7992412 641.77451754 181.56874444 652.07861328 191.06542969 C653.37282056 192.24618373 654.67417346 193.42024878 656.01391602 194.54907227 C662.8812839 200.37388167 669.16867024 206.79412623 675.52124023 213.16674805 C677.54250596 215.19337199 679.56905902 217.21459766 681.59619141 219.23535156 C687.76910341 225.40479478 693.88798316 231.55520842 699.48486328 238.26074219 C700.3611345 239.27101446 701.23868511 240.28017884 702.11767578 241.28808594 C709.02282411 249.35130773 715.51279856 257.68255146 721.89697266 266.16259766 C723.36581271 268.10343582 724.8512569 270.02985705 726.34423828 271.95214844 C747.6122739 299.51868108 765.85546114 329.81859187 782.06640625 360.57958984 C783.37835216 363.05941601 784.71025168 365.52701881 786.05126953 367.99121094 C826.41990977 442.59960042 852.85655755 526.6323504 898.67236328 796.44824219 C898.75126801 797.38930817 898.83017273 798.33037415 898.91146851 799.29995728 C901.94081393 835.8603724 902.86614913 872.42446085 902.80271912 909.097332 C902.7972681 912.38057317 902.79490822 915.66380711 902.79284668 918.947052 C902.75975229 952.80800784 902.12096028 986.48862153 899.48486328 1020.26074219 C899.33339066 1022.26073421 899.18202351 1024.26073421 899.03076172 1026.26074219 C891.99278023 1117.93895812 876.86840099 1209.74550091 841.48486328 1323.26074219 C841.26785767 1323.92164856 841.05085205 1324.58255493 840.82727051 1325.26348877 C828.40545135 1363.07988513 812.96753067 1399.51826609 795.48486328 1435.26074219 C795.05850586 1436.14068848 794.63214844 1437.02063477 794.19287109 1437.92724609 C777.68277599 1471.9883186 757.62127601 1504.30258077 734.48486328 1534.26074219 C733.85765381 1535.07502686 733.85765381 1535.07502686 733.21777344 1535.90576172 C726.98997601 1543.97395167 720.56223233 1551.84415986 713.92480469 1559.578125 C712.40012302 1561.35976387 710.88530823 1563.14947629 709.37158203 1564.94042969 C700.22769903 1575.72981444 700.22769903 1575.72981444 695.16186523 1580.58276367 C693.48030781 1582.26530032 691.94691439 1584.01485557 690.40673828 1585.82714844 C686.00981871 1590.88328762 681.29423391 1595.59773782 676.54736328 1600.32324219 C675.69207031 1601.18240234 674.83677734 1602.0415625 673.95556641 1602.92675781 C669.53255803 1607.34301866 665.04683236 1611.61281807 660.30541992 1615.68530273 C657.52314818 1618.09297332 654.8557064 1620.61915573 652.17236328 1623.13574219 C647.42987012 1627.5430043 642.58436674 1631.75138609 637.53173828 1635.80371094 C635.2295767 1637.66019765 632.95303987 1639.53569843 630.68798828 1641.43652344 C621.01107903 1649.53782896 611.06829252 1657.16221583 600.84033203 1664.55371094 C598.54683598 1666.21582997 596.26463242 1667.89236161 593.98486328 1669.57324219 C583.09144997 1677.57380382 571.90107217 1685.02894301 560.48486328 1692.26074219 C559.66711426 1692.78104004 558.84936523 1693.30133789 558.00683594 1693.83740234 C490.4213552 1736.71765894 416.50248857 1769.2282234 297.48486328 1804.26074219 C296.70367126 1804.46334656 295.92247925 1804.66595093 295.11761475 1804.87469482 C208.44786108 1827.27341141 118.61599878 1838.60217206 -434.65966797 1744.60253906 C-437.29280593 1743.36521637 -439.93318869 1742.14553174 -442.57763672 1740.93261719 C-453.8510123 1735.7317498 -464.74044534 1729.93302036 -475.58349609 1723.890625 C-478.59093923 1722.21859882 -481.60709165 1720.56312337 -484.62451172 1718.90917969 C-523.88855979 1697.28844114 -561.36288626 1672.01985617 -595.44482422 1642.86230469 C-598.19247717 1640.51816518 -601.003139 1638.26190902 -603.82763672 1636.01074219 C-610.67640957 1630.43246633 -617.01659586 1624.32061701 -623.41699219 1618.24121094 C-625.48967223 1616.28477848 -627.57892644 1614.34799899 -629.67529297 1612.41699219 C-637.48719164 1605.20750823 -644.91699873 1597.81766912 -652.01904297 1589.90966797 C-653.60334971 1588.16351788 -655.2115975 1586.44239326 -656.82763672 1584.72558594 C-663.35877027 1577.78655161 -669.56050428 1570.70650148 -675.51513672 1563.26074219 C-676.49641894 1562.0691611 -677.47961717 1560.87915622 -678.46435547 1559.69042969 C-699.73238862 1533.9408018 -718.70272161 1506.10884405 -735.51513672 1477.26074219 C-736.1691748 1476.14771729 -736.1691748 1476.14771729 -736.83642578 1475.01220703 C-745.01027793 1461.07576072 -752.54934633 1446.84552987 -759.88378906 1432.45166016 C-761.33626412 1429.6106172 -762.80679037 1426.78002594 -764.28466797 1423.95214844 C-784.83285108 1384.25783946 -800.23305005 1341.8512581 -813.84313965 1299.35302734 C-814.48295579 1297.36093858 -815.1292971 1295.37110069 -815.77783203 1293.38183594 C-841.556385 1213.82710611 -855.70982062 1130.02404276 -862.76513672 1046.82324219 C-862.84226898 1045.93133179 -862.91940125 1045.03942139 -862.99887085 1044.1204834 C-865.86667986 1010.45058516 -866.85737408 976.74800807 -866.77587891 942.96777344 C-866.7644856 938.21269673 -866.77128517 933.45784413 -866.78275681 928.702775 C-866.85192047 894.83932519 -865.61830173 861.07247022 -862.76513672 827.32324219 C-862.68276764 826.33110718 -862.60039856 825.33897217 -862.51553345 824.31677246 C-853.91380762 721.59512161 -833.4610604 620.05749833 -767.51513672 440.26074219 C-766.76248535 438.56062988 -766.76248535 438.56062988 -765.99462891 436.82617188 C-753.73096638 409.29807402 -740.41940088 381.9096971 -725.09863281 355.94482422 C-723.43795895 353.12992313 -721.79928883 350.30279363 -720.15966797 347.47558594 C-712.90056838 335.07299328 -705.17470229 323.02518497 -697.20263672 311.07324219 C-696.51550095 310.04230438 -696.51550095 310.04230438 -695.81448364 308.99053955 C-687.07363878 295.90193217 -678.02369654 283.07128653 -668.45263672 270.57324219 C-667.76145752 269.66896484 -667.07027832 268.7646875 -666.3581543 267.83300781 C-661.52990125 261.53681603 -656.62909732 255.32831153 -651.51513672 249.26074219 C-650.62572458 248.1970147 -649.73640731 247.13320789 -648.84716797 246.06933594 C-643.93006656 240.20581828 -638.93819047 234.42735821 -633.78076172 228.77246094 C-631.90892895 226.6973084 -630.06984522 224.60123865 -628.23779297 222.49121094 C-624.48809003 218.19774595 -620.61624135 214.02972616 -616.70263672 209.88574219 C-616.00267578 209.14404785 -615.30271484 208.40235352 -614.58154297 207.63818359 C-607.58256198 200.24373435 -600.57949161 192.91687273 -592.83154297 186.29589844 C-590.34679422 184.11283925 -587.9369099 181.86215774 -585.52636719 179.59790039 C-579.06343747 173.53036008 -572.43983206 167.80049846 -565.51513672 162.26074219 C-564.31178533 161.26779998 -563.11006657 160.27287709 -561.90966797 159.27636719 C-491.52929998 101.03267909 -405.54957339 63.66981552 -299.51513672 35.26074219 C-298.76417725 35.0699408 -298.01321777 34.8791394 -297.23950195 34.68255615 C-236.72637067 19.33330389 -174.97533383 10.00464988 -112.84326172 4.35839844 C-111.84706818 4.267089 -111.84706818 4.267089 -110.83074951 4.17393494 C-73.91196752 0.90473704 -37.05241555 -0.07322379 0 0 Z M-39.51513672 595.26074219 C-40.21977051 595.47037598 -40.9244043 595.68000977 -41.65039062 595.89599609 C-73.5927427 605.67518896 -100.60010162 624.40126726 -124.51513672 647.26074219 C-125.19189453 647.89625 -125.86865234 648.53175781 -126.56591797 649.18652344 C-131.7012136 654.13293463 -136.07854971 659.69201176 -140.51513672 665.26074219 C-141.40420029 666.35860851 -142.29353078 667.45625872 -143.18310547 668.55371094 C-157.73153223 686.62824681 -169.60147437 706.50637819 -179.62402344 727.41357422 C-180.45717732 729.14059949 -181.31533885 730.85549797 -182.17529297 732.56933594 C-210.22842361 789.93566691 -221.73044702 855.87509628 -223.51513672 919.26074219 C-223.53850098 920.02290039 -223.56186523 920.78505859 -223.5859375 921.5703125 C-225.23540464 983.08573398 -212.09730209 1045.78734378 -185.51513672 1101.26074219 C-185.12213379 1102.08912598 -184.72913086 1102.91750977 -184.32421875 1103.77099609 C-171.92660617 1129.77050366 -156.20110677 1153.49339674 -136.76904297 1174.78417969 C-135.24091712 1176.46326424 -133.72827814 1178.15655042 -132.22998047 1179.86230469 C-128.2910933 1184.33493472 -124.33081064 1188.5476773 -119.76123047 1192.37792969 C-118.10195652 1193.76883411 -116.47342117 1195.19659858 -114.86279297 1196.64355469 C-86.4400298 1221.96273702 -51.56521271 1237.75157424 -14.51513672 1245.26074219 C-13.80147949 1245.40769531 -13.08782227 1245.55464844 -12.35253906 1245.70605469 C8.57992531 1249.77670718 32.70040288 1248.52766718 53.48486328 1244.26074219 C54.71390381 1244.01130859 54.71390381 1244.01130859 55.96777344 1243.75683594 C75.17526596 1239.71394139 93.22988977 1232.53470908 110.48486328 1223.26074219 C111.61666016 1222.67035156 112.74845703 1222.07996094 113.91455078 1221.47167969 C128.17827041 1213.73039998 141.261109 1203.81543334 152.99658203 1192.63183594 C155.10295669 1190.6246626 157.25097981 1188.74655347 159.48486328 1186.88574219 C169.75494319 1177.93397481 178.33749599 1167.12288748 186.48486328 1156.26074219 C186.90477539 1155.70306152 187.3246875 1155.14538086 187.75732422 1154.57080078 C222.51842264 1108.07342205 243.29953854 1050.82812545 252.35986328 993.76074219 C252.5512085 992.55901367 252.74255371 991.35728516 252.93969727 990.11914062 C255.91709684 969.95236516 256.86798072 949.75103673 256.79736328 929.38574219 C256.79554047 928.28200256 256.79371765 927.17826294 256.7918396 926.04107666 C256.7391619 906.96282735 255.89054353 888.18699145 253.48486328 869.26074219 C253.40000671 868.5875293 253.31515015 867.91431641 253.22772217 867.22070312 C249.33817554 836.60282783 242.93922784 806.6640017 233.48486328 777.26074219 C233.02756836 775.81924805 233.02756836 775.81924805 232.56103516 774.34863281 C218.60258537 730.78500443 197.19610582 687.62598838 165.48486328 654.26074219 C164.24818535 652.85062771 163.01841855 651.43440618 161.79736328 650.01074219 C155.31457539 642.59539549 148.19701083 636.38420745 140.48486328 630.26074219 C139.01726562 629.06771484 139.01726562 629.06771484 137.52001953 627.85058594 C88.02144547 588.46395261 20.85813862 577.17610137 -39.51513672 595.26074219 Z " fill="#FFFFFF" transform="translate(6033.51513671875,-0.2607421875)"/>
<path d="M0 0 C3.5594674 0.0308216 7.11894168 0.06073254 10.67841721 0.09059906 C52.52938716 0.44824387 52.52938716 0.44824387 69.70457077 1.03524017 C70.72929489 1.06814651 71.75401901 1.10105286 72.80979538 1.13495636 C79.62660379 1.40930736 86.05306945 2.38880902 92.70678329 3.85909271 C105.26026073 6.21694316 118.56159469 5.78287197 131.30766869 6.00911713 C134.19676421 6.06041162 137.08575726 6.11584015 139.97475815 6.17220306 C144.11153796 6.25261971 148.2483425 6.33151089 152.3851738 6.40923309 C163.24059234 6.61428723 174.0956518 6.83718481 184.95066452 7.06258392 C186.02630157 7.08491529 187.10193863 7.10724667 188.21017075 7.13025475 C292.93153914 9.31603251 398.18449453 13.75949549 709.61863327 97.59383392 C710.9387944 98.2210434 710.9387944 98.2210434 712.28562546 98.86092377 C726.52687863 105.65353684 740.08187614 113.50249131 753.61863327 121.59383392 C755.22532548 122.54318575 756.83209071 123.49241401 758.43894577 124.44149017 C784.32367922 139.85978793 809.25395374 158.22914487 831.45847702 178.61727142 C833.49978743 180.48508891 835.5805195 182.29330783 837.68113327 184.09383392 C842.21487948 188.0402122 846.40483445 192.31194859 850.61863327 196.59383392 C853.27271001 199.26098494 855.94093442 201.9117416 858.63425827 204.53914642 C864.58685451 210.37280053 870.21178144 216.2626757 875.39207077 222.80867767 C877.37110656 225.28420841 879.41643326 227.6838758 881.49729538 230.07381439 C942.62061588 300.60993038 975.4998833 395.65060521 1003.42722702 578.13936615 C1003.6055768 580.42640629 1003.79108118 582.71275541 1003.97800827 584.99910736 C1007.86934472 633.68146559 1007.21757852 683.91833873 1003.61863327 732.59383392 C1003.48837066 734.41397978 1003.3581645 736.23412968 1003.22800827 738.05428314 C999.23159003 793.09067989 993.21243255 849.01093596 979.61863327 902.59383392 C979.31876511 903.78363861 979.01889694 904.9734433 978.70994186 906.19930267 C971.18145957 935.6603122 961.11315322 963.8961918 948.61863327 991.59383392 C948.25173386 992.41867279 947.88483444 993.24351166 947.50681686 994.09334564 C938.86538174 1013.47864209 928.30456651 1031.89551561 916.61863327 1049.59383392 C915.93269089 1050.63314056 915.93269089 1050.63314056 915.23289108 1051.6934433 C903.10586856 1069.940727 889.52010824 1087.01767624 874.77878952 1103.21492767 C873.35795063 1104.77964899 871.94868224 1106.35496921 870.55222702 1107.94149017 C862.24114687 1117.354592 853.43798336 1126.59916616 843.83738327 1134.71492767 C842.00259004 1136.26868743 840.1980503 1137.84592625 838.39988327 1139.44149017 C829.14061241 1147.62528987 819.5404881 1155.23131901 809.61863327 1162.59383392 C808.52977829 1163.406185 808.52977829 1163.406185 807.41892624 1164.2349472 C790.27665341 1176.98467829 772.24263566 1188.14899005 753.61863327 1198.59383392 C752.68261276 1199.12202728 751.74659225 1199.65022064 750.78220749 1200.19441986 C680.70916591 1239.5308512 601.93626973 1262.53490157 436.61863327 1288.34383392 C435.26372787 1288.48634583 435.26372787 1288.48634583 433.88145065 1288.63173676 C395.31691839 1292.63604686 356.4838499 1294.01372971 317.7450242 1294.99960113 C312.18561942 1295.14310177 306.62649242 1295.29670762 301.06733322 1295.44937897 C292.86249702 1295.67398126 284.65759688 1295.89589166 276.45259249 1296.11426443 C261.15095186 1296.52177269 245.85002334 1296.95175118 230.54929733 1297.39217377 C229.39159442 1297.42547987 228.23389152 1297.45878598 227.0411067 1297.49310136 C222.36249272 1297.62773323 217.68388058 1297.76242863 213.00527263 1297.89726985 C200.21765205 1298.26561755 187.42986765 1298.62815123 174.64207077 1298.9903183 C170.01414032 1299.12139473 165.38621043 1299.25249113 160.75828171 1299.38362885 C159.03612651 1299.43242618 159.03612651 1299.43242618 157.27918029 1299.48220932 C148.94177469 1299.71861185 140.6044145 1299.95657881 132.26707077 1300.19515228 C121.64027811 1300.4992376 111.01343629 1300.80153156 100.38653076 1301.1016472 C94.85422264 1301.25793984 89.32194084 1301.41504743 83.78971863 1301.57435417 C78.66506274 1301.72189507 73.54034352 1301.86700354 68.4155674 1302.0103054 C66.55889843 1302.06263269 64.70225307 1302.11580636 62.84563637 1302.16995621 C60.28704869 1302.24444456 57.728388 1302.31568418 55.16968918 1302.3862381 C54.46428879 1302.40753743 53.7588884 1302.42883676 53.03211224 1302.45078152 C44.56307856 1302.67685025 36.08991251 1302.61099957 27.61863327 1302.59383392 C27.62205075 1304.15257163 27.62205075 1304.15257163 27.62553728 1305.74279898 C27.72552645 1351.52830506 27.81809651 1397.31381895 27.87269211 1443.09940338 C27.87352045 1443.79230397 27.87434879 1444.48520455 27.87520224 1445.19910213 C27.89315864 1460.25679478 27.90977988 1475.31448862 27.92502525 1490.37218426 C27.93250943 1497.75620772 27.94028873 1505.14023086 27.94822311 1512.52425385 C27.94900767 1513.25906265 27.94979222 1513.99387146 27.95060055 1514.75094721 C27.97618004 1538.57893418 28.02125633 1562.40683592 28.07641659 1586.23477124 C28.13298637 1610.71598192 28.16993992 1635.19714542 28.18212321 1659.67842037 C28.1838522 1663.13424715 28.18580603 1666.59007377 28.18789673 1670.04590034 C28.18830127 1670.72607327 28.1887058 1671.40624619 28.1891226 1672.10703041 C28.19621981 1683.06698427 28.2240666 1694.02679246 28.25962547 1704.98668685 C28.29491147 1715.99842868 28.307964 1727.01005945 28.29964153 1738.02186432 C28.29578572 1743.99111217 28.30183479 1749.95993154 28.33386612 1755.92910385 C28.36295154 1761.38895866 28.3646128 1766.84809472 28.34402664 1772.30798183 C28.34148042 1774.28788367 28.34918784 1776.26782941 28.36793236 1778.24764415 C28.39186936 1780.93093511 28.37912876 1783.61160136 28.35692024 1786.29484844 C28.38056336 1787.45915278 28.38056336 1787.45915278 28.40468413 1788.64697841 C28.35006966 1791.54899142 28.20833106 1793.8803336 26.31503959 1796.17110709 C14.97850031 1805.84045875 -2.26030921 1806.98698043 -16.44386673 1808.15633392 C-17.88144967 1808.28050203 -19.31903101 1808.4046887 -20.75661087 1808.52889252 C-31.26708709 1809.4173396 -41.7883538 1810.11772704 -52.31886673 1810.71883392 C-54.27288406 1810.83207001 -54.27288406 1810.83207001 -56.2663765 1810.94759369 C-84.42489333 1812.48688934 -112.62492777 1812.80420742 -140.81886673 1812.78133392 C-141.65386955 1812.78091976 -142.48887238 1812.7805056 -143.34917831 1812.78007889 C-211.55927329 1812.73821463 -279.69478045 1809.85276142 -347.84583247 1807.2763958 C-361.94136623 1806.74368719 -376.03723296 1806.22087096 -390.13362885 1805.71141434 C-392.16371429 1805.63791755 -394.19378445 1805.56399579 -396.22383118 1805.4894371 C-423.44678248 1804.48993697 -450.66444222 1804.40634881 -477.90407181 1804.40853119 C-482.83119262 1804.40861228 -487.75822009 1804.40167797 -492.68532181 1804.38802338 C-519.27435689 1804.31541051 -545.79667574 1804.43350532 -572.3520546 1805.89188385 C-581.31159458 1806.3786961 -590.24690369 1806.6969665 -599.22096634 1806.72982025 C-600.59102373 1806.73913464 -600.59102373 1806.73913464 -601.98875904 1806.7486372 C-613.94400907 1806.72998331 -623.20873445 1804.08061817 -632.19386673 1796.09383392 C-635.80417715 1791.96776487 -637.75488499 1788.88456534 -637.76388826 1783.33057316 C-637.77732762 1781.75571542 -637.77732762 1781.75571542 -637.79103848 1780.14904238 C-637.78563828 1778.99881265 -637.78023808 1777.84858292 -637.77467424 1776.66349775 C-637.78377986 1774.81668671 -637.78377986 1774.81668671 -637.79306943 1772.93256637 C-637.80694502 1769.49679827 -637.80732898 1766.0614978 -637.80216083 1762.62573636 C-637.79981942 1758.88091631 -637.81482575 1755.1361594 -637.82762095 1751.39136603 C-637.84772596 1744.79672147 -637.85658791 1738.20213433 -637.85823432 1731.60746042 C-637.86073349 1721.73479714 -637.88027822 1711.86221829 -637.90312324 1701.98958376 C-637.94150948 1685.16563265 -637.96533328 1668.34168825 -637.98123169 1651.5177021 C-637.99736337 1634.4605282 -638.01981654 1617.40338081 -638.04997063 1600.34622574 C-638.05186535 1599.27012546 -638.05376008 1598.19402518 -638.05571222 1597.08531581 C-638.06343727 1592.70272593 -638.07118807 1588.32013611 -638.07897677 1583.93754634 C-638.17983176 1527.06688299 -638.24129948 1470.19619166 -638.2962967 1413.32546836 C-638.30822522 1401.02570541 -638.32078299 1388.72594311 -638.33336292 1376.42618081 C-638.42683543 1284.9215456 -638.50808974 1193.41690208 -638.55820325 1101.91223216 C-638.5698637 1080.69364127 -638.58192399 1059.47505059 -638.594156 1038.25646002 C-638.59568859 1035.59288697 -638.59721478 1032.92931392 -638.59873459 1030.26574086 C-638.63460856 967.39458605 -638.68577776 904.52350704 -638.79219437 841.65242767 C-638.79331366 840.99068664 -638.79443295 840.32894562 -638.79558616 839.64715183 C-638.83284515 817.64110539 -638.87192287 795.63506221 -638.91119598 773.62901929 C-639.02084729 712.17083042 -639.12196729 650.71269484 -639.15884304 589.25441265 C-639.15960531 587.99065712 -639.16036759 586.72690158 -639.16115296 585.42485043 C-639.17770163 557.68291509 -639.18922367 529.94097989 -639.19602937 502.19904052 C-639.19884334 491.03687278 -639.20231175 479.87470526 -639.20597267 468.71253777 C-639.20635524 467.49089628 -639.20673781 466.26925479 -639.20713197 465.01059387 C-639.21976029 425.64826922 -639.28811364 386.2862849 -639.38523747 346.92408546 C-639.48275596 307.27759739 -639.52357149 267.63148029 -639.48605486 227.98487751 C-639.48088098 222.50647072 -639.47634256 217.02806357 -639.47218513 211.54965591 C-639.47134631 210.47573388 -639.47050748 209.40181184 -639.46964323 208.29534671 C-639.4580154 191.28914713 -639.50690585 174.28368111 -639.58102487 157.27766171 C-639.65265432 140.5558082 -639.66011472 123.83494764 -639.59931187 107.11304016 C-639.56559111 97.30857176 -639.58105427 87.50717449 -639.66953449 77.7030303 C-639.72340546 71.18758107 -639.7117007 64.67435434 -639.64719499 58.15900764 C-639.61245871 54.46640238 -639.60500444 50.77977832 -639.67865713 47.08760842 C-640.12507697 23.18257674 -640.12507697 23.18257674 -631.20983819 13.25085264 C-624.14330604 6.29878524 -618.37987049 1.99979146 -608.24326646 1.30448818 C-607.5891071 1.34510152 -606.93494773 1.38571486 -606.26096535 1.4275589 C-605.11947033 1.48120008 -605.11947033 1.48120008 -603.95491481 1.53592491 C-603.16614931 1.57437082 -602.37738382 1.61281673 -601.56471634 1.65242767 C-599.85366713 1.66659288 -598.14253204 1.67238219 -596.43142509 1.67063141 C-592.75241914 1.68362871 -589.08039107 1.75224635 -585.40312767 1.86580658 C-579.43163053 2.04907119 -573.46273137 2.10355378 -567.48877335 2.14070892 C-559.99326107 2.19477974 -552.49910871 2.27720632 -545.00431424 2.39428139 C-530.7122787 2.61282969 -516.43208194 2.57268343 -502.13966751 2.41024017 C-500.49727252 2.39179043 -500.49727252 2.39179043 -498.82169783 2.37296796 C-494.35726485 2.3220575 -489.89285448 2.26960932 -485.42846805 2.21476328 C-473.96671475 2.07417634 -462.50471105 1.97307021 -451.04252398 1.87534642 C-446.34148106 1.83510873 -441.64045051 1.7935144 -436.93941921 1.75194538 C-433.36237742 1.72033537 -429.78533405 1.68891107 -426.2082901 1.657547 C-421.31643106 1.61465396 -416.42457265 1.57169017 -411.53271484 1.52865601 C-200.37231278 -0.32830898 -200.37231278 -0.32830898 0 0 Z M19.61863327 423.59383392 C19.50427693 477.92299513 19.41612969 532.25214421 19.36330662 586.58140202 C19.35705283 592.99033134 19.35058124 599.39926042 19.34397507 605.80818939 C19.34266351 607.08413266 19.34135196 608.36007592 19.34000067 609.67468414 C19.3182232 630.35520353 19.27878879 651.03565369 19.23286929 671.71613196 C19.18616979 692.92421968 19.15835166 714.13227105 19.1481908 735.34040809 C19.14131813 748.4349978 19.11958422 761.52939181 19.07905094 774.6239213 C19.05269287 783.59407921 19.04461651 792.56413542 19.05112638 801.53432927 C19.05434009 806.71559095 19.04929263 811.89650983 19.0226059 817.07771111 C18.99837555 821.81641976 18.99697882 826.55455327 19.0141388 831.29328772 C19.01626138 833.01206698 19.0098323 834.73088131 18.99421736 836.44959095 C18.97428374 838.77811529 18.98487914 841.10453652 19.00339413 843.43302536 C19.00149553 844.72863113 18.99959692 846.02423689 18.99764079 847.35910344 C19.33678126 850.76236026 19.33678126 850.76236026 22.02451736 852.99402118 C38.23154568 862.98902964 68.56812369 858.96084934 86.82638931 858.91189194 C88.96077169 858.90625566 91.09514614 858.90343243 93.22953415 858.90081024 C113.84018283 858.86399721 134.16383999 858.38889884 154.61863327 855.59383392 C156.00765849 855.41407723 157.39682464 855.23540691 158.78611374 855.05770111 C178.27181381 852.54586615 197.50526957 849.19068297 216.61863327 844.59383392 C217.67888718 844.33908295 218.73914108 844.08433197 219.8315239 843.82186127 C274.55583989 830.40986311 326.40092746 807.16167338 368.18113327 768.78133392 C368.72890427 768.27851898 369.27667526 767.77570404 369.84104538 767.25765228 C401.64740241 737.40965879 418.35472264 696.26162334 425.24412155 653.88973236 C425.57474347 651.86289497 425.93615185 649.84113135 426.30222702 647.82039642 C429.52113788 627.35256326 428.99980374 604.82901153 424.61863327 584.59383392 C424.45766159 583.82249115 424.29668991 583.05114838 424.1308403 582.25643158 C414.61011558 538.01844362 384.88565111 502.70149685 347.69285202 478.32430267 C311.03668268 454.8412265 269.92270321 440.91556871 227.61863327 431.59383392 C226.0330864 431.24409515 226.0330864 431.24409515 224.41550827 430.88729095 C196.28863586 424.81484912 167.3306779 421.28545906 138.61863327 419.59383392 C137.73481979 419.53743744 136.85100632 419.48104095 135.94041061 419.42293549 C77.09478406 414.83924963 77.09478406 414.83924963 19.61863327 423.59383392 Z " fill="#FFFFFF" transform="translate(7868.381366729736,20.406166076660156)"/>
<path d="M0 0 C0.66843885 -0.00260719 1.33687769 -0.00521437 2.02557226 -0.00790056 C4.2701753 -0.0142023 6.51449849 -0.00622955 8.75909328 0.00165081 C10.39306525 0.00005928 12.02703655 -0.00240786 13.66100603 -0.00567043 C18.18018604 -0.01211415 22.69927686 -0.00598947 27.21845105 0.00209157 C32.14694802 0.00871276 37.07543558 0.00375321 42.00393391 0.00029373 C51.84993016 -0.00475237 61.69589337 0.00111304 71.54188554 0.0102077 C83.47149695 0.02073884 95.40110095 0.01984747 107.33071599 0.01882166 C131.10070291 0.01723026 154.87067326 0.02784007 178.64065353 0.04332668 C199.10242403 0.0566547 219.56419181 0.06630043 240.02596587 0.07204648 C246.49617813 0.07387053 252.96639036 0.07578318 259.43660259 0.07769775 C260.51357603 0.07801589 260.51357603 0.07801589 261.6123065 0.07834046 C341.51447135 0.10208204 421.41660371 0.16324588 866.82521936 0.65939915 C881.33697129 0.67864272 895.84872369 0.69748343 910.36047649 0.71605587 C932.98484025 0.74502811 955.6092033 0.77450122 978.23356533 0.80479717 C979.61470375 0.80664557 979.61470375 0.80664557 981.02374396 0.8085313 C1023.40085097 0.86531673 1065.77793542 0.92859436 1108.15499783 1.01269817 C1109.01669682 1.01440482 1109.87839582 1.01611147 1110.76620691 1.01786983 C1127.04984188 1.05013932 1143.33347568 1.08297455 1159.61710608 1.11747968 C1169.64855992 1.13872965 1179.68001452 1.15956918 1189.7114706 1.17973614 C1190.53119086 1.18138573 1191.35091111 1.18303532 1192.19547137 1.1847349 C1220.00203515 1.24037613 1247.80854988 1.26614818 1275.61516357 1.27823386 C1291.95149151 1.28542131 1308.28779448 1.29580224 1324.6241045 1.32198334 C1325.36524 1.3231707 1326.1063755 1.32435807 1326.86996966 1.32558142 C1334.21230664 1.33748851 1341.5546412 1.35044049 1348.89697384 1.36477708 C1352.47016788 1.3717343 1356.04336233 1.37845158 1359.61655712 1.38501453 C1360.31632955 1.38630516 1361.01610198 1.3875958 1361.73707963 1.38892554 C1372.79059357 1.4087273 1383.84401122 1.40834767 1394.89753539 1.39933907 C1405.71299652 1.39090587 1416.52825237 1.4039351 1427.34366211 1.4385971 C1433.11180726 1.45643264 1438.87953292 1.46464641 1444.64768648 1.44643807 C1449.88251219 1.43005843 1455.11652991 1.44104902 1460.3512703 1.47411598 C1462.23256138 1.48115481 1464.11392356 1.47812136 1465.99517371 1.4638552 C1479.61896137 1.36825695 1487.69003037 3.44505665 1497.68644619 13.24498272 C1503.11335125 20.62960419 1502.56132773 28.07970197 1502.47390652 36.91810894 C1502.47010098 38.41902075 1502.46760309 39.91993635 1502.46630156 41.42085242 C1502.45881964 45.52375191 1502.43233285 49.62633795 1502.4024684 53.7291275 C1502.37348167 58.14725067 1502.36169782 62.56542609 1502.34746361 66.98361683 C1502.31349797 76.48009904 1502.25701948 85.97636279 1502.19566393 95.47270203 C1502.15935328 101.11565651 1502.12811861 106.75863072 1502.09811687 112.40162182 C1501.9673388 136.76627532 1501.79641746 161.13054434 1501.61023695 185.49483161 C1501.55285885 193.0083435 1501.49678337 200.52186426 1501.44149494 208.03539181 C1501.43345758 209.12763264 1501.42542022 210.21987346 1501.4171393 211.3452125 C1501.40079065 213.56781789 1501.3844454 215.79042331 1501.3681035 218.01302876 C1501.22529681 237.41979265 1501.07960942 256.82653381 1500.9322958 276.23326397 C1500.7910724 294.83773784 1500.6523719 313.44222841 1500.51628017 332.04674053 C1500.36610492 352.57618698 1500.21440483 373.10562121 1500.0602898 393.6350385 C1500.04370085 395.84511923 1500.02711282 398.05519997 1500.0105257 400.26528072 C1500.00237408 401.35116937 1499.99422247 402.43705801 1499.98582383 403.55585238 C1499.93770921 409.97547797 1499.89020242 416.39510768 1499.84327883 422.81474208 C1499.81308094 426.94463554 1499.78268668 431.07452754 1499.75224598 435.20441921 C1499.73731559 437.23387308 1499.72245416 439.26332746 1499.70766268 441.29278235 C1499.62937781 452.00815158 1499.54441458 462.72337608 1499.43820953 473.43850803 C1499.41087736 476.23103241 1499.38365765 479.02355782 1499.35656647 481.81608455 C1499.33877761 483.6494212 1499.32083767 485.4827564 1499.30274334 487.31609006 C1499.18877953 499.08766443 1499.15248918 510.85640666 1499.1918233 522.6284517 C1499.21099806 528.67234338 1499.20081057 534.71607031 1499.18180661 540.75995264 C1499.1691086 545.53228005 1499.19383041 550.30233469 1499.24872074 555.0743373 C1499.27265363 557.96619755 1499.25940322 560.85699364 1499.23545606 563.74881658 C1499.23044041 565.69425973 1499.27035226 567.6396596 1499.31198823 569.58466363 C1499.1923558 577.81235469 1499.1923558 577.81235469 1496.43540967 581.64534259 C1494.09846489 583.82736044 1491.85601232 585.52189452 1489.15910244 587.24888897 C1488.50429881 587.75302657 1487.84949519 588.25716418 1487.17484903 588.77657868 C1479.54178082 594.17225665 1472.13275413 594.07900333 1463.15064907 593.97041607 C1461.53334021 593.97303568 1459.91603385 593.97829497 1458.29874098 593.98595107 C1453.87439097 593.99931705 1449.45091851 593.97543829 1445.02668023 593.9452827 C1440.2483531 593.9193061 1435.47007312 593.92814481 1430.69169521 593.93269634 C1422.41947542 593.93583831 1414.14754018 593.91705689 1405.87539196 593.88326931 C1393.91539076 593.83445057 1381.95552678 593.81887485 1369.99543674 593.81134136 C1350.58979034 593.79821844 1331.18429549 593.75831277 1311.77873135 593.70152569 C1292.9310828 593.64642869 1274.08347545 593.60396931 1255.2357626 593.57847881 C1254.07346156 593.57690247 1252.91116052 593.57532613 1251.71363823 593.57370202 C1245.88255705 593.56587164 1240.05147557 593.55828943 1234.2203939 593.5508306 C1185.86652535 593.48865781 1137.5128213 593.38300291 1089.15910244 593.24888897 C1089.15972636 594.28536206 1089.16035028 595.32183515 1089.16099311 596.38971651 C1089.18232466 631.87679047 1089.202767 667.36386492 1089.222579 702.85093975 C1089.22297819 703.56582567 1089.22337738 704.28071159 1089.22378867 705.01726072 C1089.26652997 781.60406012 1089.30342447 858.19085969 1089.328475 934.77766705 C1089.3290328 936.47848323 1089.32959061 938.17929941 1089.33014842 939.88011559 C1089.34183866 975.57913749 1089.35270558 1011.2781596 1089.36262115 1046.97718203 C1089.36760281 1064.90945439 1089.3727427 1082.84172669 1089.37803221 1100.77399896 C1089.3788292 1103.47904804 1089.37962167 1106.18409712 1089.38041396 1108.8891462 C1089.39265676 1150.55286684 1089.40829739 1192.21658281 1089.43376064 1233.88029766 C1089.43430824 1234.77639549 1089.43485583 1235.67249332 1089.43542002 1236.59574563 C1089.44426973 1251.04388845 1089.45340408 1265.49203108 1089.4625762 1279.94017369 C1089.48898403 1321.54524358 1089.51329394 1363.15030988 1089.52366161 1404.75538731 C1089.52398282 1406.03821656 1089.52398282 1406.03821656 1089.52431052 1407.34696156 C1089.52897312 1426.11918905 1089.53255275 1444.89141658 1089.53510637 1463.66364447 C1089.53615289 1471.21647211 1089.53735536 1478.76929973 1089.53861141 1486.32212734 C1089.53874512 1487.14876153 1089.53887883 1487.97539572 1089.53901659 1488.82707943 C1089.54340536 1515.48002301 1089.56049975 1542.13293994 1089.58423127 1568.78587276 C1089.60807071 1595.62512429 1089.61950484 1622.46434993 1089.61359839 1649.30361232 C1089.61278603 1653.0092475 1089.61211651 1656.7148827 1089.61153316 1660.42051792 C1089.61141364 1661.14695275 1089.61129412 1661.87338758 1089.61117098 1662.62183559 C1089.60964606 1674.14256513 1089.62160643 1685.66324005 1089.63914189 1697.1839547 C1089.65609306 1708.50174903 1089.65854944 1719.81945291 1089.64642969 1731.13726083 C1089.64036035 1737.19609943 1089.6407726 1743.25475474 1089.65863517 1749.31357409 C1089.67474177 1754.8183159 1089.67266033 1760.32273022 1089.65566234 1765.82746661 C1089.65278995 1767.81340009 1089.65671945 1769.79935715 1089.66804342 1771.78526042 C1089.682395 1774.47101921 1089.67229067 1777.15560184 1089.65589643 1779.84132302 C1089.67094969 1781.00045463 1089.67094969 1781.00045463 1089.68630706 1782.18300304 C1089.61858196 1787.34596929 1088.39171784 1790.25590251 1085.15910244 1794.24888897 C1070.28003077 1807.08885874 1044.62429658 1805.28705551 1026.34416103 1804.05992413 C1024.49141783 1803.90830372 1022.63907268 1803.75173082 1020.78718472 1803.5899992 C1007.59123096 1802.45983175 994.44920726 1801.95514084 981.20988369 1801.71763897 C980.12581423 1801.69737715 979.04174477 1801.67711533 977.92482471 1801.65623951 C937.13946232 1800.91587307 896.34078669 1800.90178354 855.55014372 1800.73147923 C847.35980762 1800.69708643 839.16948718 1800.65999762 830.9791708 1800.62120342 C751.11044808 1800.2431414 671.25300172 1800.11372825 591.38492578 1800.63772887 C584.54953553 1800.68222845 577.71412326 1800.72201977 570.87869895 1800.76088089 C564.08772199 1800.79968011 557.2967685 1800.84158443 550.50582445 1800.88576752 C546.5352636 1800.91156477 542.56470518 1800.93636583 538.59411907 1800.95796299 C522.84055256 1801.04496374 507.09106032 1801.21335587 491.34193587 1801.61238396 C489.82818993 1801.65053783 488.31440122 1801.68704239 486.80056977 1801.72163761 C476.27403154 1801.96776188 465.88383934 1802.72969385 455.40910244 1803.81138897 C397.8302027 1809.54663589 397.8302027 1809.54663589 379.22551825 1795.82254466 C374.73718765 1791.59231196 373.51223856 1787.68572852 373.28171307 1781.62933403 C373.21854359 1778.49477089 373.24453475 1775.36499823 373.27688599 1772.23018265 C373.26907878 1770.50110818 373.25814405 1768.77204544 373.24433049 1767.04300853 C373.21526231 1762.34613926 373.22866882 1757.65022794 373.24910829 1752.95334941 C373.26313219 1747.93766217 373.23666547 1742.92218864 373.21386629 1737.90655714 C373.17996955 1729.5093116 373.16737718 1721.11228726 373.16885018 1712.7149775 C373.16901159 1701.0928844 373.10458786 1689.47194028 373.01432514 1677.85023594 C373.00037834 1676.01722212 372.98646422 1674.18420805 372.97258265 1672.35119373 C372.96225976 1670.98811575 372.96225976 1670.98811575 372.95172832 1669.59750084 C372.94484065 1668.68777923 372.93795298 1667.77805762 372.93085659 1666.84076869 C372.92390938 1665.93071926 372.91696217 1665.02066982 372.90980444 1664.08304313 C372.83087779 1653.60366438 372.77358066 1643.12417747 372.71737576 1632.64465618 C372.71211015 1631.66890238 372.70684454 1630.69314858 372.70141937 1629.68782648 C372.67977564 1625.67696179 372.65819122 1621.6660968 372.63675707 1617.65523099 C372.5790635 1606.87104407 372.51823631 1596.08687519 372.45745909 1585.30270529 C372.33158459 1562.94786911 372.20911058 1540.59301516 372.08785444 1518.23815351 C371.99376636 1500.89393484 371.89882028 1483.54972106 371.80331516 1466.20551014 C371.77549026 1461.15065244 371.74766919 1456.09579473 371.71984917 1451.04093701 C371.71292537 1449.7829335 371.70600157 1448.52493 371.69886795 1447.22880518 C371.50481948 1411.96583392 371.31187445 1376.70285677 371.12121391 1341.43986702 C371.11399343 1340.10454945 371.10677294 1338.76923187 371.09955244 1337.4339143 C371.0633532 1330.73914802 371.02716425 1324.04438168 370.99097668 1317.34961533 C370.98009249 1315.33606679 370.96920824 1313.32251825 370.95832394 1311.30896971 C370.95106174 1309.96546235 370.94379986 1308.621955 370.93653828 1307.27844764 C370.70828623 1265.04860255 370.47604001 1222.81878137 370.24040127 1180.58897686 C369.97753456 1133.47898224 369.71823951 1086.36896962 369.46359688 1039.25892979 C369.43610056 1034.1742083 369.40859156 1029.08948688 369.38107395 1024.00476551 C369.3743047 1022.75356198 369.36753545 1021.50235846 369.36056107 1020.21323967 C369.26725447 1002.97903462 369.1718724 985.74484226 369.07475446 968.51065828 C368.91125491 939.49171111 368.75240649 910.4727423 368.60221767 881.45372295 C368.59363026 879.79699708 368.59363026 879.79699708 368.58486936 878.10680199 C368.09384841 783.15407182 368.03531178 688.20264835 368.15910244 593.24888897 C367.23920146 593.25134945 366.31930048 593.25380993 365.37152371 593.25634497 C286.44812197 593.46699439 286.44812197 593.46699439 257.97660732 593.50889874 C256.973702 593.51037808 255.97079669 593.51185743 254.9375003 593.5133816 C247.91696751 593.52356118 240.89643363 593.5328049 233.87589931 593.54185772 C224.82633811 593.55360504 215.77677753 593.56572796 206.72721767 593.57847881 C205.59299505 593.58006131 204.45877243 593.5816438 203.29017943 593.58327425 C184.97646895 593.60937361 166.66287145 593.65667841 148.34922797 593.71180575 C129.55595533 593.76790524 110.76274185 593.80123964 91.9693889 593.81341994 C80.37184631 593.82165466 68.7746229 593.84766768 57.17717855 593.89638777 C49.22550485 593.92809161 41.27399629 593.93769222 33.32226396 593.92989723 C28.73370125 593.92605232 24.14569649 593.93196614 19.55723286 593.96412182 C15.3541552 593.99336148 11.15200965 593.99476891 6.94888871 593.97428234 C5.43055025 593.97175115 3.91215317 593.97932919 2.39392973 593.99818806 C-6.54862046 594.10278677 -12.95533436 593.41444442 -19.84089756 587.24888897 C-20.73421787 586.48705303 -21.62753819 585.72521709 -22.54792881 584.94029522 C-23.59013584 583.88648663 -23.59013584 583.88648663 -24.65339756 582.81138897 C-25.71494053 581.76144756 -25.71494053 581.76144756 -26.79792881 580.69029522 C-32.42787416 573.96234906 -33.41569866 569.2658898 -33.23741913 560.67066669 C-33.23222857 559.63654368 -33.22703801 558.60242066 -33.22169016 557.53696059 C-33.20031601 554.13488508 -33.15077241 550.73382364 -33.10138035 547.33204937 C-33.08143767 544.93294709 -33.06350275 542.53382736 -33.04748768 540.13469565 C-33.01216626 535.21397536 -32.96651085 530.29352127 -32.91226363 525.37297392 C-32.8434476 518.92413349 -32.80956656 512.47578331 -32.79617596 506.02661037 C-32.7941327 505.06081693 -32.79208945 504.09502348 -32.78998428 503.09996356 C-32.78604135 501.16374696 -32.78220258 499.22753015 -32.77846946 497.29131314 C-32.76692403 492.32984574 -32.74594756 487.36842087 -32.72508335 482.40698528 C-32.71882107 480.89708471 -32.71882107 480.89708471 -32.71243227 479.35668109 C-32.70381174 477.28075442 -32.69515732 475.20482788 -32.68647063 473.12890148 C-32.66318465 467.50675542 -32.64116227 461.88460434 -32.61892796 456.26245403 C-32.56550358 442.82339805 -32.510037 429.38435083 -32.45428315 415.94530433 C-32.4278727 409.56828553 -32.40168647 403.1912658 -32.37547207 396.81424618 C-32.28800216 375.55670525 -32.20001879 354.29916657 -32.11040688 333.04163456 C-32.10466559 331.67930286 -32.09892452 330.31697117 -32.09318366 328.95463947 C-32.0903377 328.27929586 -32.08749173 327.60395224 -32.08455952 326.90814367 C-32.07014951 323.48852232 -32.05574223 320.06890096 -32.04133701 316.64927959 C-32.03847809 315.9707576 -32.03561916 315.2922356 -32.0326736 314.59315233 C-31.93978342 292.54166235 -31.85024427 270.49016048 -31.76263208 248.43864894 C-31.66936552 224.96736797 -31.57294656 201.49610246 -31.47305197 178.02484858 C-31.41892336 165.28856593 -31.36614702 152.55228106 -31.31701946 139.81597805 C-31.27526036 128.99261874 -31.23051839 118.16927669 -31.18205936 107.34594522 C-31.1575151 101.84467272 -31.13425967 96.34340387 -31.11485386 90.84211063 C-31.07673063 80.25781363 -31.02126436 69.67425713 -30.90963901 59.09045123 C-30.85653409 53.87379634 -30.83825102 48.65852687 -30.84668292 43.44162261 C-30.84520443 40.18006176 -30.81514699 36.91921418 -30.77738487 33.65789099 C-30.76589064 32.1625604 -30.76612679 30.66708253 -30.77945501 29.17176716 C-30.88160122 16.61407261 -30.88160122 16.61407261 -26.4497242 11.43004704 C-23.77866755 8.88143366 -21.00373628 6.68846978 -17.77839756 4.87388897 C-16.983046 4.41240459 -16.18769444 3.95092022 -15.36824131 3.47545147 C-10.1796801 0.9573553 -5.76656519 -0.00105719 0 0 Z " fill="#FFFFFF" transform="translate(3481.8408975601196,21.751111030578613)"/>
<path d="M0 0 C1.38732896 0.00199941 2.77465808 0.00389895 4.1619873 0.00570679 C165.93177449 0.24255701 165.93177449 0.24255701 181.6875 12.125 C184.47499043 15.2112397 185.06283181 17.17934896 185.06529484 21.3091945 C185.07715013 22.8958255 185.07715013 22.8958255 185.08924492 24.51450964 C185.08266337 25.67867281 185.07608182 26.84283597 185.06930083 28.0422768 C185.07412894 29.28423748 185.07895704 30.52619816 185.08393145 31.80579401 C185.09698704 35.27634887 185.09123141 38.74666288 185.08258202 42.21722225 C185.07645369 45.99818178 185.0876948 49.77909559 185.09674242 53.56004372 C185.11025181 60.21992716 185.11250952 66.87974261 185.10757979 73.53963684 C185.10024817 83.50976145 185.11008194 93.47981811 185.12330805 103.44993399 C185.14532344 120.43912999 185.15293748 137.42830576 185.15278244 154.4175148 C185.15266317 171.64279733 185.15897371 188.86805923 185.17317009 206.09333611 C185.17406001 207.17986305 185.17494993 208.26638999 185.17586682 209.38584199 C185.17950831 213.81083912 185.18318932 218.23583622 185.18692222 222.66083327 C185.22792765 271.35120143 185.24404648 320.04156202 185.25365657 368.73194502 C185.25390044 369.96416266 185.25414432 371.19638029 185.25439559 372.46593786 C185.25488837 374.95907664 185.25537817 377.45221541 185.25586501 379.94535419 C185.26126337 407.28468415 185.27138879 434.6240117 185.28217312 461.96333998 C185.28659155 473.21380275 185.29086359 484.46426558 185.29512817 495.71472842 C185.29583502 497.57923334 185.29583502 497.57923334 185.29655616 499.48140504 C185.32348429 570.72970529 185.34306923 641.97800451 185.34839153 713.22630978 C185.34859656 715.89375102 185.34880224 718.56119225 185.34900881 721.22863349 C185.34973164 730.59068939 185.35043548 739.9527453 185.35113658 749.3148012 C185.35168936 756.69562835 185.35224529 764.07645551 185.35281062 771.45728266 C185.35306775 774.81733156 185.3533221 778.17738046 185.3535703 781.53742936 C185.35826807 845.00740516 185.37035344 908.47736288 185.41168213 971.94732666 C185.41211707 972.61562439 185.41255202 973.28392213 185.41300014 973.97247131 C185.42661304 994.85331141 185.44112819 1015.73415087 185.45581055 1036.61499023 C185.50038034 1100.00889834 185.54236934 1163.40279847 185.55357838 1226.79672337 C185.5538053 1228.07198098 185.55403222 1229.34723859 185.55426602 1230.66114038 C185.55915667 1258.65199763 185.56173061 1286.64285466 185.56215282 1314.63371233 C185.56232869 1324.64856743 185.56269464 1334.66342252 185.56316059 1344.67827761 C185.5632758 1347.16983984 185.56338223 1349.66140207 185.56347987 1352.15296429 C185.56514513 1391.90180013 185.59081418 1431.65057557 185.62854866 1471.39939214 C185.66637815 1511.41819029 185.67874089 1551.43691196 185.65594825 1591.45572396 C185.65280495 1596.97890347 185.64994041 1602.50208309 185.64724159 1608.02526283 C185.64670157 1609.10801293 185.64616155 1610.19076302 185.64560516 1611.30632372 C185.63776795 1628.4889731 185.65687572 1645.67148391 185.68705952 1662.85410413 C185.71614346 1679.72732759 185.71694274 1696.60035195 185.68712701 1713.47357643 C185.67048171 1723.3805843 185.67599468 1733.28699696 185.71349774 1743.19395116 C185.73619355 1749.76074791 185.73025315 1756.32710193 185.70031753 1762.89386902 C185.68413091 1766.62494762 185.68074055 1770.3548525 185.71243795 1774.08585784 C185.74614661 1778.08564004 185.71863072 1782.08259694 185.68453997 1786.08237404 C185.70425659 1787.24414646 185.7239732 1788.40591887 185.74428728 1789.60289652 C185.60750565 1797.17957856 185.60750565 1797.17957856 182.93876323 1799.92204681 C180.8961433 1801.22453319 178.92588294 1802.20839959 176.6875 1803.125 C175.29724609 1803.85589844 175.29724609 1803.85589844 173.87890625 1804.6015625 C150.22675379 1814.93400355 123.78721246 1811.67427019 98.89428711 1808.63647461 C88.01942886 1807.36348482 77.1579644 1806.85392536 66.21801758 1806.57470703 C65.42388242 1806.55372401 64.62974726 1806.53274098 63.8115474 1806.51112211 C44.12042678 1806.00069634 24.43020873 1805.96118627 4.73358917 1805.95798302 C0.59468525 1805.95667808 -3.54421306 1805.95207497 -7.68311465 1805.94766486 C-21.08783872 1805.9337818 -34.49254698 1805.93345067 -47.8972764 1805.93677568 C-51.38926481 1805.93750297 -54.88125295 1805.93775172 -58.37324142 1805.9378624 C-117.21070259 1805.94070418 -176.04364284 1806.02849763 -234.875 1806.9375 C-235.55391595 1806.94797096 -236.23283191 1806.95844192 -236.93232107 1806.96923018 C-258.39338388 1807.30168829 -279.85306945 1807.70112164 -301.3125 1808.125 C-302.08603475 1808.1402601 -302.85956949 1808.15552019 -303.65654469 1808.17124271 C-315.39282674 1808.4028685 -327.12904679 1808.63753474 -338.86523414 1808.8739078 C-341.43642866 1808.92568102 -344.00762484 1808.97737189 -346.57882118 1809.02905464 C-351.6891929 1809.131846 -356.79955602 1809.23505774 -361.90991211 1809.33862305 C-362.74888413 1809.35562527 -363.58785614 1809.3726275 -364.45225155 1809.39014494 C-375.7785586 1809.62011956 -387.1045867 1809.86101316 -398.43050539 1810.1093179 C-450.84377194 1811.25591562 -450.84377194 1811.25591562 -476.49467087 1811.38080978 C-478.59325821 1811.39231172 -480.69182638 1811.40859215 -482.79033279 1811.43031693 C-519.51346333 1811.78474738 -519.51346333 1811.78474738 -531.7303144 1800.01345308 C-536.90583237 1793.83609763 -537.89823909 1786.15376806 -537.77298641 1778.38148785 C-537.77420617 1777.43866568 -537.77542592 1776.49584351 -537.77668264 1775.52445097 C-537.77591381 1772.33420468 -537.74631543 1769.14486313 -537.7172699 1765.95475769 C-537.71090695 1763.589702 -537.70639397 1761.22464076 -537.70352614 1758.85957825 C-537.69320474 1753.59765481 -537.67035457 1748.33599423 -537.63739026 1743.07417929 C-537.58677752 1734.93577021 -537.56121826 1726.79740087 -537.54087634 1718.65886624 C-537.51311335 1707.60749762 -537.48034164 1696.55615681 -537.43720418 1685.5048371 C-537.32476915 1656.59210587 -537.26707931 1627.67950363 -537.2307149 1598.76658125 C-537.22292662 1592.58680765 -537.21485524 1586.40703442 -537.20682651 1580.22726113 C-537.20354347 1577.69691095 -537.20026118 1575.16656077 -537.19697962 1572.63621059 C-537.19533788 1571.37155408 -537.19369614 1570.10689757 -537.19200464 1568.80391814 C-537.18866599 1566.22451506 -537.18534432 1563.64511196 -537.18203932 1561.06570884 C-537.14328821 1530.85715641 -537.09268532 1500.64862712 -537.04068486 1470.44009511 C-537.03318168 1466.08017321 -537.02571889 1461.72025125 -537.01826598 1457.36032926 C-537.01702715 1456.63570005 -537.01578831 1455.91107083 -537.01451193 1455.16448315 C-537.01200169 1453.69616828 -537.00949149 1452.2278534 -537.00698132 1450.75953853 C-536.99042591 1441.07757632 -536.9738345 1431.39561416 -536.95717881 1421.71365212 C-536.92003193 1400.11644151 -536.88340097 1378.51923006 -536.84707451 1356.92201805 C-536.84442047 1355.344485 -536.84176636 1353.76695194 -536.83911218 1352.18941889 C-536.82842735 1345.83858928 -536.81774441 1339.48775967 -536.80706421 1333.13693005 C-536.77719706 1315.3778603 -536.74724949 1297.61879069 -536.71723843 1279.85972118 C-536.71587248 1279.05141405 -536.71450653 1278.24310691 -536.71309919 1277.41030561 C-536.66972251 1251.74539328 -536.62599056 1226.08048156 -536.58200932 1200.41557026 C-536.58058937 1199.58694 -536.57916941 1198.75830973 -536.57770644 1197.90456946 C-536.55468636 1184.47152617 -536.53164811 1171.0384829 -536.50860839 1157.60543964 C-536.42016212 1106.03715302 -536.33278343 1054.46886472 -536.24653549 1002.90057438 C-536.22331276 989.01648562 -536.20007504 975.13239689 -536.17682838 961.24830818 C-536.1754776 960.44154319 -536.17412682 959.6347782 -536.17273511 958.80356579 C-536.03895812 878.90931512 -535.90331342 799.01506754 -534.3125 14.125 C-530.61904949 12.84242104 -526.92144382 11.57268953 -523.21974182 10.31411743 C-521.35049377 9.67570457 -519.48459392 9.02751512 -517.61877441 8.37915039 C-509.1495771 5.50886659 -502.43987558 4.07975615 -493.48144531 4.93701172 C-489.04018771 5.32194737 -484.57900859 5.40466022 -480.125 5.5625 C-479.02357666 5.60608643 -477.92215332 5.64967285 -476.78735352 5.69458008 C-387.30433205 9.23525318 -297.66864787 6.66103775 -205.7890625 4.13671875 C-204.99423352 4.11489076 -204.19940454 4.09306277 -203.38048983 4.07057333 C-186.66165038 3.61129945 -169.94297013 3.14706191 -153.22478199 2.66461945 C-102.16229476 1.19145319 -51.08805073 -0.11259187 0 0 Z " fill="#FFFFFF" transform="translate(9711.3125,16.875)"/>
<path d="M0 0 C12.0516881 0.41357219 24.1035587 0.82147173 36.15567398 1.22241211 C41.82740167 1.41113075 47.49909939 1.6000436 53.17044258 1.80004883 C84.4431367 2.89848492 115.73402391 2.78844126 147.02190262 2.78585106 C152.3684043 2.78615145 157.71485546 2.79432534 163.06134224 2.80654907 C194.94772287 2.87792726 226.77741535 2.85756548 258.63088894 1.1622324 C261.10484965 1.03544768 263.57905284 0.92858 266.05404854 0.82427979 C268.79155007 0.70588458 271.44010846 0.49316475 274.16946602 0.1875 C288.45358618 -0.92779944 295.51120221 4.61339736 310.47955513 10.60073853 C310.47955513 599.65073853 310.47955513 1188.70073853 310.47955513 1795.60073853 C295.78743434 1802.38171735 295.78743434 1802.38171735 289.22955513 1803.91323853 C287.96627388 1804.21874634 286.70299263 1804.52425415 285.40143013 1804.83901978 C264.52901629 1808.89292485 243.09887031 1806.371414 222.16192818 1804.11172485 C210.86859309 1802.9362239 199.59737235 1802.35902116 188.25006294 1802.07461548 C187.07116468 1802.04386338 187.07116468 1802.04386338 185.86845028 1802.01249003 C164.62729734 1801.46431311 143.38141119 1801.26205331 122.13454366 1801.07577276 C118.68987281 1801.04546123 115.24521263 1801.01409851 111.80055237 1800.9826088 C60.45737419 1800.51829442 9.11544689 1800.44627484 -42.22950613 1800.47216916 C-50.58519749 1800.47594757 -58.94087699 1800.47456655 -67.29656792 1800.47036743 C-117.23268298 1800.44597809 -167.1653573 1800.52395363 -217.09940267 1801.01465082 C-220.23768865 1801.04538592 -223.3759825 1801.07518387 -226.51427841 1801.1048851 C-246.2294161 1801.29454369 -265.94070338 1801.54976706 -285.65008354 1802.07461548 C-286.38839035 1802.09343757 -287.12669716 1802.11225966 -287.8873769 1802.13165212 C-298.49135496 1802.4076636 -308.97676632 1803.0838417 -319.50457573 1804.38708496 C-384.71994184 1812.33522966 -384.71994184 1812.33522966 -407.52044487 1795.60073853 C-408.14632217 1793.30128098 -408.14632217 1793.30128098 -408.14758204 1790.53379581 C-408.16019136 1789.47673454 -408.17280068 1788.41967327 -408.1857921 1787.33057984 C-408.1741928 1786.16204818 -408.16259349 1784.99351652 -408.15064269 1783.7895748 C-408.15802697 1782.54693316 -408.16541125 1781.30429151 -408.17301929 1780.02399406 C-408.19295586 1776.54670522 -408.1814642 1773.0700999 -408.16520179 1769.59281764 C-408.15297864 1765.80641472 -408.16969296 1762.02012404 -408.18277594 1758.23373935 C-408.20177799 1751.56269776 -408.20200917 1744.8918545 -408.19029102 1738.22079917 C-408.17283652 1728.23396883 -408.18403798 1718.24731294 -408.20095243 1708.26048902 C-408.22891554 1691.24322954 -408.23295519 1674.22603801 -408.22413826 1657.20876122 C-408.21527482 1639.95402191 -408.21718088 1622.69933465 -408.23233032 1605.44459915 C-408.23327763 1604.35637156 -408.23422493 1603.26814397 -408.23520094 1602.14693978 C-408.23909222 1597.71504075 -408.24305668 1593.2831418 -408.24711506 1588.85124292 C-408.28830667 1543.81240727 -408.29691246 1498.7736057 -408.29254786 1453.73475405 C-408.29194982 1447.50674142 -408.29138904 1441.27872879 -408.29086709 1435.05071616 C-408.29076201 1433.81376548 -408.29065693 1432.57681481 -408.29054866 1431.30238078 C-408.28841538 1403.91686434 -408.29580007 1376.53135299 -408.30507507 1349.14583836 C-408.30718677 1342.89694416 -408.30923136 1336.64804993 -408.31128573 1330.39915571 C-408.31211194 1327.89131628 -408.31293841 1325.38347685 -408.31376514 1322.87563742 C-408.3141746 1321.63256719 -408.31458406 1320.38949696 -408.31500593 1319.10875793 C-408.31583564 1316.59442985 -408.31666799 1314.08010176 -408.31750299 1311.56577368 C-408.34096028 1240.86467335 -408.3547545 1170.16357634 -408.34585103 1099.46247224 C-408.3455991 1097.45933623 -408.34535037 1095.45620022 -408.34510244 1093.4530642 C-408.34335665 1079.37980068 -408.34148606 1065.30653718 -408.33956775 1051.23327369 C-408.33929286 1049.21629198 -408.33901855 1047.19931028 -408.3387444 1045.18232857 C-408.33856146 1043.83696979 -408.33837852 1042.49161101 -408.33819559 1041.14625223 C-408.33810506 1040.48010386 -408.33801453 1039.81395548 -408.33792125 1039.12762079 C-408.33746338 1035.76171974 -408.33700271 1032.39581868 -408.33653668 1029.02991763 C-408.32774742 965.45195227 -408.32701282 901.87400964 -408.36120415 838.29605103 C-408.36156407 837.62665831 -408.36192399 836.95726559 -408.36229483 836.26758824 C-408.37320975 816.02582166 -408.38517599 795.78405572 -408.39739929 775.54228989 C-408.41076398 753.40932334 -408.42401701 731.27635674 -408.43655682 709.1433897 C-408.43693188 708.48265254 -408.43730695 707.82191538 -408.43769338 707.14115589 C-408.46114666 665.76983085 -408.47486148 624.39851229 -408.47782993 583.02718067 C-408.47792262 581.74976167 -408.4780153 580.47234267 -408.47811079 579.15621401 C-408.48004538 551.11759291 -408.47956226 523.07897229 -408.47686099 495.04035127 C-408.4759132 485.00831323 -408.47513093 474.97627517 -408.47442338 464.9442371 C-408.47424486 462.44840002 -408.47405678 459.95256294 -408.47385911 457.45672587 C-408.47078174 417.64187647 -408.49076528 377.82708047 -408.52202085 338.01224454 C-408.55416741 296.81150953 -408.55696539 255.61086709 -408.52602188 214.41012987 C-408.52281856 209.99044702 -408.51974484 205.5707641 -408.51677322 201.15108109 C-408.51603255 200.06637755 -408.51529187 198.98167401 -408.51452875 197.86410067 C-408.50350294 180.65321928 -408.51938499 163.4424711 -408.5463248 146.23161168 C-408.57222123 129.32895607 -408.56978581 112.42650482 -408.53672021 95.52385943 C-408.51816535 85.600654 -408.52172501 75.67803791 -408.55728376 65.75487553 C-408.57869175 59.17606141 -408.57142501 52.5976947 -408.5402017 46.01892053 C-408.52328534 42.28183052 -408.51911116 38.54590887 -408.55008681 34.80888269 C-408.58303439 30.8009571 -408.55464939 26.79585742 -408.51978618 22.78794974 C-408.53926652 21.6265903 -408.55874686 20.46523087 -408.57881752 19.26867872 C-408.44101487 11.68867134 -408.44101487 11.68867134 -405.80124836 8.56898614 C-394.83492295 0.05392696 -378.98531801 -0.16355899 -365.64544487 -1.02426147 C-363.9465932 -1.14332358 -362.24778222 -1.26296743 -360.54900932 -1.38314819 C-341.22385049 -2.71884729 -321.87741094 -3.67352567 -302.52044487 -4.39926147 C-301.31877678 -4.44470093 -301.31877678 -4.44470093 -300.09283257 -4.49105835 C-215.8747267 -7.61651767 -131.48351506 -4.40568198 0 0 Z " fill="#FFFFFF" transform="translate(2819.520444869995,21.399261474609375)"/>
</svg>
