<?xml version="1.0" encoding="UTF-8"?><svg id="a" xmlns="http://www.w3.org/2000/svg" viewBox="0 0 43.166 43.452"><path d="M22.103,9.216c1.195-.232,2.305-.861,3.565-.687,1.232.17,2.303,1.579,3.322,2.194l2.456-.906c2.046.287,3.314,1.559,4.64,2.992l3.439.441c3.222,1.808,4.085,5.978,3.442,9.383-.239,1.263-.862,2.552-1.27,3.786-.249.751-.347,1.575-.618,2.322-.321.882-.946,1.578-1.237,2.408-.276.788-.281,1.857-.611,2.564-.373.798-1.388,1.886-1.903,2.683-1.382,2.141-2.45,4.337-4.418,6.047-.932.81-1.128,1.05-2.417,1.003-4.527-.166-8.783-1.166-13.277-1.421-1.433-.081-2.887.146-4.297-.232.222-.469.868-1.167.802-1.672-.059-.453-1.045-2.289-1.329-2.797-2.025-3.632-6.375-8.9-9.466-11.699-.537-.486-2.117-1.502-2.323-2.027C.415,23.115.004,21.286,0,20.794c-.017-1.966,2.355-4.068,4.125-4.55,3.311-.901,5.352.846,8.206,2.034-.586-4.546-1.694-9.073-3.853-13.13.468-1.217.816-2.6,1.572-3.674,1.76-2.498,5.724-1.397,7.799.176,2.52,1.911,2.909,4.885,4.254,7.566ZM23.593,17.074l-1.976.567-1.933-1.834c-.22-3.651-.292-7.912-2.094-11.193-.86-1.567-3.201-2.585-4.826-1.484-.59.4-.713,1.232-.77,1.935-.219,2.725,1.422,4.957,2.133,7.363.411,1.39.472,2.757.801,4.138.342,1.435,1.04,2.801,1.619,4.153.062.175-.013.309-.072.466-.055.145-1.406,2.089-1.52,2.157-.301.181-1.104.142-1.455.06-1.029-.24-1.847-1.789-2.518-2.538-1.522-1.698-3.156-2.804-5.534-2.121-1.233.354-2.095.826-2.277,2.191-.344,2.586,2.306,3.985,3.932,5.572,2.546,2.486,5.056,5.847,7.089,8.785.459.664,1.933,2.689,2.089,3.33.124.513-.365,1.116-.303,1.645,2.55.111,5.162-.012,7.707.113,1.451.071,2.888.434,4.351.363.697-.034,2.769-.296,3.369-.512.819-.295,2.579-2.45,3.13-3.22,1.753-2.45,2.789-5.093,3.698-7.943.868-2.721,2.483-7.511,2.201-10.26-.133-1.304-1.408-2.928-2.853-2.62s-.79,1.535-1.386,2.259c-.058.071-1.336.992-1.437,1.036-.659.289-1.104-.929-1.59-1.281.389-1.331.979-2.947.263-4.268-.557-1.029-1.39-1.077-2.368-.503-1.244.73-.893,1.554-1.145,2.735-.078.365-.396,1.523-.558,1.794s-1.084.694-1.388.62c-1.869-.454-.505-2.648-.602-3.992-.039-.539-.71-2.565-1.221-2.662-3.458-.654-2.022,3.182-2.557,5.146Z"/><path d="M23.593,17.074c.534-1.964-.902-5.8,2.557-5.146.511.097,1.182,2.123,1.221,2.662.097,1.344-1.267,3.538.602,3.992.304.074,1.225-.348,1.388-.62s.48-1.429.558-1.794c.253-1.181-.099-2.005,1.145-2.735.979-.574,1.811-.527,2.368.503.715,1.321.126,2.937-.263,4.268.486.351.932,1.569,1.59,1.281.101-.044,1.379-.966,1.437-1.036.596-.724-.055-1.952,1.386-2.259s2.72,1.316,2.853,2.62c.281,2.749-1.334,7.539-2.201,10.26-.909,2.85-1.945,5.493-3.698,7.943-.551.77-2.311,2.925-3.13,3.22-.599.216-2.672.478-3.369.512-1.463.071-2.9-.292-4.351-.363-2.545-.125-5.156-.002-7.707-.113-.061-.53.428-1.133.303-1.645-.156-.641-1.63-2.666-2.089-3.33-2.033-2.938-4.543-6.298-7.089-8.785-1.626-1.588-4.277-2.987-3.932-5.572.182-1.366,1.044-1.837,2.277-2.191,2.378-.683,4.013.423,5.534,2.121.671.749,1.489,2.298,2.518,2.538.351.082,1.154.121,1.455-.06.113-.068,1.465-2.012,1.52-2.157.059-.157.134-.291.072-.466-.579-1.352-1.277-2.718-1.619-4.153-.328-1.38-.39-2.747-.801-4.138-.711-2.406-2.352-4.637-2.133-7.363.057-.703.18-1.535.77-1.935,1.625-1.101,3.966-.083,4.826,1.484,1.802,3.281,1.874,7.542,2.094,11.193l1.933,1.834,1.976-.567Z" fill="#fff"/></svg>