<?xml version="1.0" encoding="UTF-8"?><svg id="a" xmlns="http://www.w3.org/2000/svg" viewBox="0 0 503.993 503.993"><circle cx="251.997" cy="251.997" r="251.997" fill="#157982"/><circle cx="251.997" cy="251.997" r="165.426" fill="#e7edea"/><path d="M52.435,198.846c-14.196-5.296-19.515-16.839-14.796-29.484,4.052-10.863,11.443-13.475,16.564-12.808l4.482,1.673-3.516,9.426c-2.973-.455-5.922,1.129-7.509,5.383-2.08,5.574.623,10.969,9.071,14.122,8.219,3.065,13.945.881,16.046-4.751,1.566-4.196.231-7.64-2.271-9.359l3.517-9.426,4.484,1.672c5.269,3.603,7.887,11.324,4.307,20.922-4.761,12.76-16.469,17.82-30.379,12.63Z" fill="#98c57c"/><path d="M87.936,136.813l-27.275-2.588-3.877-2.909,7.141-9.52,19.322,2.761-8.318-17.435,6.293-8.392,3.828,2.871,10.405,25.287,14.182,10.637-7.471,9.962-14.232-10.675Z" fill="#98c57c"/><path d="M100.726,79.785l16.562-12.465c7.252-5.459,14.662-4.894,19.161,1.083,2.766,3.675,3.056,8.14.829,11.505,4.768-1.824,9.714-.556,12.59,3.266,5.09,6.763,3.41,14.628-4.724,20.75l-16.759,12.613-27.659-36.751ZM126.244,82.992c2.303-1.733,3.072-4.077,1.56-6.086-1.66-2.205-3.953-2.09-6.305-.321l-5.292,3.983,4.795,6.371,5.243-3.947ZM137.798,97.017c2.989-2.25,3.388-5.084,1.913-7.043-1.475-1.961-4.101-2.287-7.188.037l-5.88,4.426,5.274,7.007,5.881-4.426Z" fill="#98c57c"/><path d="M155.932,44.037l28.551-11.049,3.875,10.013-16.936,6.555,2.458,6.351,14.704-5.691,3.499,9.04-14.705,5.691,2.9,7.495,16.937-6.554,3.874,10.013-28.551,11.049-16.607-42.914Z" fill="#98c57c"/><path d="M217.343,71.912l-4.366-45.787,16.483-1.573c11.416-1.088,19.135,4.275,20.056,13.92.476,5.006-1.773,9.841-6.45,13.121l10.447,12.002.46,4.823-11.539,1.1-11.025-13.549-3.052.291,1.379,14.469-12.393,1.183ZM231.442,45.987c3.847-.367,6.006-2.914,5.68-6.332-.309-3.236-2.82-5.03-6.727-4.657l-4.274.408,1.048,10.988,4.273-.407Z" fill="#98c57c"/><path d="M308.64,29.608l11.75,4.122-5.644,16.091,14.47,5.076,5.644-16.091,11.75,4.121-15.225,43.41-11.75-4.121,6.049-17.249-14.47-5.076-6.049,17.249-11.75-4.121,15.225-43.411Z" fill="#98c57c"/><path d="M374.182,58.271l24.783,17.962-6.299,8.69-14.701-10.654-3.996,5.513,12.764,9.251-5.687,7.846-12.764-9.25-4.716,6.506,14.701,10.654-6.299,8.691-24.782-17.962,26.996-37.248Z" fill="#98c57c"/><path d="M384.218,124.97l36.005-28.655,10.316,12.962c7.145,8.978,6.862,18.377-.723,24.413-3.937,3.133-9.218,3.886-14.522,1.756l-4.36,15.31-3.793,3.018-7.221-9.073,5.341-16.64-1.91-2.4-11.377,9.056-7.757-9.745ZM413.65,122.639c2.407,3.024,5.722,3.445,8.41,1.305,2.544-2.024,2.677-5.11.232-8.182l-2.675-3.36-8.641,6.877,2.674,3.36Z" fill="#98c57c"/><path d="M435.903,156.865c13.398-5.155,25.612-.061,30.525,12.707,4.914,12.767-.736,24.735-14.132,29.89-13.569,5.223-25.955.196-30.869-12.573-4.913-12.768.908-24.802,14.477-30.024ZM447.823,187.84c7.443-2.865,10.913-8.538,8.644-14.435-2.292-5.954-8.648-7.781-16.091-4.916-7.672,2.952-11.278,8.612-8.987,14.566,2.27,5.897,8.762,7.738,16.434,4.785Z" fill="#98c57c"/><path d="M452.664,300.805c14.306,4.987,19.872,16.411,15.431,29.154-3.816,10.946-11.147,13.716-16.281,13.162l-4.518-1.575,3.312-9.5c2.982.391,5.894-1.257,7.389-5.544,1.958-5.617-.859-10.95-9.373-13.919-8.282-2.886-13.959-.58-15.938,5.098-1.474,4.228-.066,7.64,2.472,9.305l-3.312,9.498-4.517-1.573c-5.346-3.487-8.131-11.151-4.76-20.821,4.482-12.858,16.078-18.171,30.094-13.285Z" fill="#98c57c"/><path d="M418.579,363.536l27.325,1.978,3.94,2.82-6.925,9.677-19.381-2.327,8.707,17.244-6.105,8.531-3.892-2.785-10.966-25.049-14.418-10.316,7.247-10.127,14.467,10.354Z" fill="#98c57c"/><path d="M406.994,420.896l-16.289,12.827c-7.133,5.614-14.553,5.213-19.183-.665-2.846-3.615-3.234-8.074-1.08-11.486-4.729,1.926-9.701.769-12.661-2.99-5.237-6.652-3.729-14.553,4.27-20.852l16.481-12.978,28.462,36.143ZM369.549,404.475c-2.94,2.316-3.278,5.157-1.76,7.086,1.519,1.926,4.15,2.198,7.186-.193l5.783-4.556-5.426-6.89-5.783,4.553ZM381.407,418.246c-2.265,1.785-2.982,4.145-1.427,6.121,1.708,2.169,3.999,2.004,6.312.182l5.204-4.098-4.933-6.265-5.157,4.06Z" fill="#98c57c"/><path d="M352.658,457.791l-28.293,11.691-4.101-9.922,16.783-6.935-2.601-6.293-14.572,6.022-3.702-8.96,14.572-6.022-3.07-7.428-16.783,6.937-4.102-9.925,28.294-11.693,17.574,42.528Z" fill="#98c57c"/><path d="M290.561,431.311l5.36,45.705-16.453,1.931c-11.396,1.335-19.233-3.862-20.362-13.49-.586-4.997,1.559-9.882,6.166-13.264l-10.71-11.778-.565-4.815,11.518-1.351,11.322,13.313,3.048-.356-1.694-14.443,12.371-1.453ZM277.02,457.549c-3.839.45-5.943,3.046-5.544,6.458.38,3.23,2.931,4.968,6.831,4.511l4.266-.5-1.286-10.969-4.267.5Z" fill="#98c57c"/><path d="M200.242,475.596l-11.839-3.858,5.285-16.216-14.581-4.751-5.285,16.213-11.839-3.86,14.259-43.74,11.839,3.858-5.665,17.381,14.581,4.754,5.665-17.381,11.839,3.858-14.259,43.743Z" fill="#98c57c"/><path d="M134.13,448.426l-25.187-17.409,6.106-8.833,14.94,10.326,3.873-5.603-12.972-8.965,5.513-7.977,12.972,8.967,4.571-6.612-14.941-10.328,6.106-8.833,25.187,17.411-26.168,37.855Z" fill="#98c57c"/><path d="M122.573,381.893l-35.37,29.427-10.594-12.733c-7.338-8.819-7.26-18.22.191-24.419,3.867-3.219,9.131-4.086,14.478-2.07l4.026-15.4,3.726-3.101,7.416,8.913-4.976,16.751,1.962,2.358,11.177-9.3,7.965,9.573ZM93.2,384.864c-2.472-2.971-5.795-3.32-8.436-1.122-2.499,2.08-2.564,5.166-.053,8.185l2.747,3.301,8.489-7.062-2.747-3.301Z" fill="#98c57c"/><path d="M70.25,351.188c-13.277,5.447-25.598.625-30.79-12.026-5.192-12.653.19-24.74,13.466-30.189,13.446-5.518,25.938-.766,31.13,11.887,5.193,12.653-.36,24.808-13.806,30.328ZM57.653,320.492c-7.376,3.025-10.719,8.774-8.32,14.617,2.422,5.902,8.814,7.588,16.191,4.56,7.602-3.12,11.082-8.859,8.661-14.759-2.399-5.843-8.928-7.541-16.532-4.419Z" fill="#98c57c"/><path d="M21.292,267.192v-6.194l8.434-8.062c1.717-1.644,2.949-3.436,2.949-5.301,0-1.679-.97-2.613-2.351-2.613-1.941,0-2.837,1.717-3.061,3.247h-6.121v-2.91c.598-3.174,3.583-6.831,9.704-6.831,5.412,0,9.405,3.023,9.405,7.838,0,4.143-1.53,6.159-5.449,10.113l-3.731,3.808h9.591v6.904h-19.37Z" fill="#fff"/><path d="M51.567,257.338v-8.284c0-5.86,4.181-10.526,11.048-10.526,6.978-.038,11.047,4.666,11.047,10.526v8.284c0,5.824-4.18,10.526-11.047,10.526-6.98,0-11.048-4.702-11.048-10.526ZM66.384,257.338v-8.284c0-2.24-1.269-4.032-3.769-4.032-2.426,0-3.77,1.792-3.77,4.032v8.284c0,2.24,1.27,4.032,3.77,4.032,2.425,0,3.769-1.792,3.769-4.032Z" fill="#fff"/><path d="M432.736,267.192v-6.194l8.434-8.062c1.717-1.644,2.949-3.436,2.949-5.301,0-1.679-.97-2.613-2.351-2.613-1.941,0-2.837,1.717-3.061,3.247h-6.121v-2.91c.598-3.174,3.583-6.831,9.704-6.831,5.412,0,9.405,3.023,9.405,7.838,0,4.143-1.53,6.159-5.449,10.113l-3.731,3.808h9.591v6.904h-19.37Z" fill="#fff"/><path d="M462.415,260.847v-2.91h6.158c.224,1.455,1.046,3.358,3.695,3.358,2.128,0,3.21-1.717,3.21-3.509,0-1.754-1.232-3.395-3.434-3.395-2.127,0-3.097,1.007-3.097,1.007l-5.151-2.051,1.27-14.145h16.085v6.27h-10.113l-.299,3.322c.635-.151,1.568-.337,2.688-.337,5.822,0,9.629,3.584,9.629,9.293,0,5.973-4.031,10.116-10.749,10.116-5.524,0-9.182-3.322-9.891-7.017Z" fill="#fff"/><path d="M351.842,144.701h-197.457v188.511l98.729,69.078,98.357-69.111.371-188.478Z" fill="#157982"/><polygon points="245.93 375.107 172.359 323.831 172.359 162.675 275.231 162.675 275.231 191.976 201.978 191.976 201.978 309.18 245.93 338.442 245.93 375.107" fill="#98c57c"/><polygon points="238.286 213.952 267.587 213.952 267.587 243.253 305.126 243.253 305.126 162.675 333.833 162.675 333.514 323.831 260.58 375.107 260.58 338.442 304.532 309.18 304.532 272.554 267.587 272.554 267.587 309.18 252.937 316.505 238.286 309.18 238.286 213.952" fill="#98c57c"/></svg>