<?xml version="1.0" encoding="UTF-8" standalone="no"?>
<!-- Created with Inkscape (http://www.inkscape.org/) -->

<svg
   xmlns:dc="http://purl.org/dc/elements/1.1/"
   xmlns:cc="http://creativecommons.org/ns#"
   xmlns:rdf="http://www.w3.org/1999/02/22-rdf-syntax-ns#"
   xmlns:svg="http://www.w3.org/2000/svg"
   xmlns="http://www.w3.org/2000/svg"
   xmlns:sodipodi="http://sodipodi.sourceforge.net/DTD/sodipodi-0.dtd"
   xmlns:inkscape="http://www.inkscape.org/namespaces/inkscape"
   width="351.26721"
   height="528.38434"
   id="svg2"
   version="1.1"
   inkscape:version="0.48.5 r10040"
   sodipodi:docname="v.svg">
  <defs
     id="defs4" />
  <sodipodi:namedview
     id="base"
     pagecolor="#ffffff"
     bordercolor="#666666"
     borderopacity="1.0"
     inkscape:pageopacity="0.0"
     inkscape:pageshadow="2"
     inkscape:zoom="0.35"
     inkscape:cx="44.919328"
     inkscape:cy="408.47787"
     inkscape:document-units="px"
     inkscape:current-layer="layer1"
     showgrid="false"
     inkscape:window-width="1366"
     inkscape:window-height="664"
     inkscape:window-x="-8"
     inkscape:window-y="-8"
     inkscape:window-maximized="1"
     fit-margin-top="0"
     fit-margin-left="0"
     fit-margin-right="0"
     fit-margin-bottom="0" />
  <metadata
     id="metadata7">
    <rdf:RDF>
      <cc:Work
         rdf:about="">
        <dc:format>image/svg+xml</dc:format>
        <dc:type
           rdf:resource="http://purl.org/dc/dcmitype/StillImage" />
        <dc:title></dc:title>
      </cc:Work>
    </rdf:RDF>
  </metadata>
  <g
     inkscape:label="Layer 1"
     inkscape:groupmode="layer"
     id="layer1"
     transform="translate(-330.08067,-436.74143)">
    <path
       style="fill:#1c1c1c"
       d="m 515.87197,964.31471 c -0.65475,-1.0594 -6.59538,-19.21507 -8.52011,-26.039 -0.54295,-1.925 -1.88751,-6.425 -2.9879,-10 -4.15819,-13.50929 -5.98425,-25.1125 -6.0004,-38.12788 -0.0161,-12.95043 0.11257,-13.56409 5.20307,-24.82003 2.98878,-6.6087 2.64504,-12.08001 -1.30726,-20.80791 -3.16927,-6.99869 -8.29249,-11.90071 -13.95426,-13.35178 -4.84374,-1.24142 -6.6943,-2.90373 -3.20722,-2.88098 0.9625,0.006 17.3875,-0.16707 36.5,-0.38522 31.4234,-0.35867 40.29962,0.14297 31.75,1.79434 -1.65,0.31871 -4.28073,0.825 -5.84606,1.1251 -3.75238,0.71941 -10.34593,7.15379 -13.04571,12.73079 -1.18698,2.45198 -2.67127,6.90443 -3.29841,9.89434 -1.0886,5.18996 -0.99521,5.74317 2.06191,12.21357 4.72762,10.00602 6.49308,21.60028 5.11275,33.57677 -1.14189,9.90767 -2.90987,18.28848 -6.02045,28.53889 -1.00141,3.3 -2.79861,9.375 -3.99378,13.5 -1.19517,4.125 -2.52119,8.4 -2.94671,9.5 -0.42552,1.1 -1.62112,4.7 -2.6569,8 -1.45625,4.6397 -2.37008,6.0697 -4.03057,6.3072 -1.18104,0.1689 -2.44644,-0.1768 -2.81199,-0.7682 z m 13.90865,-129.35647 c 2.713,-0.7034 5.1369,-1.89142 5.38645,-2.64006 0.31335,-0.94006 -0.0779,-1.15719 -1.26452,-0.70182 -0.94503,0.36264 -9.19643,0.65935 -18.33645,0.65935 -18.07105,0 -20.91863,1.31234 -6.18493,2.8504 12.25605,1.27942 14.90117,1.25765 20.39945,-0.16787 z m -64.7047,89.06747 c -2.18062,-2.3375 -7.36397,-8.49926 -11.51856,-13.69279 -6.85749,-8.57235 -22.48653,-27.59887 -32.08294,-39.05721 -3.49264,-4.17029 -20.72094,-25.77084 -27.62653,-34.63768 -8.69598,-11.16571 -27.5,-38.29383 -27.5,-39.67361 0,-0.32364 -1.3684,-2.61603 -3.04088,-5.09418 -3.01337,-4.46496 -15.95912,-30.826 -15.95912,-32.49706 0,-0.47787 -0.67223,-2.15779 -1.49384,-3.73316 -0.82161,-1.57537 -1.49661,-3.59685 -1.5,-4.49219 -0.003,-0.89533 -0.63046,-3.14533 -1.3935,-5 -3.61834,-8.79488 -6.24539,-39.93482 -8.67856,-102.87212 -0.99254,-25.67339 -1.50353,-35.81024 -3.10013,-61.5 -2.01547,-32.42936 -1.13583,-94.54872 1.59338,-112.52346 1.54905,-10.20212 1.30876,-9.82002 8.40888,-13.37108 3.80384,-1.90246 10.31177,-4.025 15.16377,-4.94562 4.675,-0.88703 12.775,-2.54909 18,-3.69346 5.225,-1.14436 11.75,-2.48021 14.5,-2.96856 2.75,-0.48834 7.25,-1.37576 10,-1.97204 14.72273,-3.19231 35.63644,-6.28934 36.51798,-5.4078 1.47398,1.47398 -1.30006,14.21007 -6.45721,29.64615 -4.74821,14.21207 -6.68539,25.75048 -5.87169,34.97339 1.12234,12.72107 6.68496,24.0268 12.44397,25.29169 1.81571,0.3988 3.99107,1.10055 4.83413,1.55945 0.84305,0.45889 5.03254,2.40303 9.30997,4.32032 4.27743,1.91728 9.81249,4.85961 12.30013,6.5385 2.48764,1.67888 4.83792,3.05448 5.22285,3.05688 0.38493,0.002 3.96237,3.10053 7.94987,6.88473 8.69444,8.25118 9.96823,12.13886 2,6.10411 -10.87485,-8.23608 -36.03693,-19.03155 -51.25,-21.98815 -3.3,-0.64135 -7.88677,-1.57985 -10.19282,-2.08557 -2.30605,-0.50572 -9.05605,-0.91527 -15,-0.91011 -10.08803,0.009 -11.1399,0.20171 -15.80718,2.89954 -5.26653,3.04421 -11.25611,8.66831 -10.27573,9.64869 0.31815,0.31816 2.98535,-0.17398 5.9271,-1.09362 8.30636,-2.59674 29.29694,-3.11339 40.3775,-0.99383 19.8634,3.79958 41.52223,13.35979 52.23979,23.05862 l 6.23134,5.63904 0,6.83269 c 0,6.19924 -0.24012,7.0076 -2.59004,8.7194 l -2.59004,1.88671 8.63785,7.41521 c 8.33159,7.15231 13.94696,14.19343 16.33159,20.47818 3.02936,7.98398 5.04659,49.31271 3.34345,68.5 -1.0059,11.33233 -2.21228,18.0852 -5.2493,29.38376 -1.64654,6.12558 -1.24924,15.30706 0.81466,18.82669 0.99101,1.68999 4.43748,5.37149 7.65883,8.18113 5.56606,4.85467 6.1373,5.10788 11.5,5.09762 4.93007,-0.009 6.4642,-0.54406 12.143,-4.23171 3.575,-2.3215 9.77554,-5.8603 13.77898,-7.86399 l 7.27899,-3.64308 4.32034,1.64996 c 2.37619,0.90747 5.38886,2.78733 6.69481,4.17746 2.00361,2.13274 2.14428,2.67307 0.90068,3.45952 -1.76999,1.11933 -8.45296,1.11792 -15.9738,-0.003 -4.37124,-0.65171 -6.09402,-0.4828 -8.39443,0.823 -4.35711,2.47328 -5.28707,4.49758 -3.55939,7.74798 1.77548,3.34036 16.05495,17.36815 21.17176,20.79862 4.66933,3.13046 16.13361,6.5964 21.81887,6.5964 7.92366,0 19.75713,-4.98078 29.96319,-12.61168 9.11084,-6.81203 26,-23.33927 26,-25.44285 0,-1.35377 -1.0806,-1.86622 -4.75,-2.25257 -17.7259,-1.86636 -33.22148,-11.06952 -36.80533,-21.8595 -1.22022,-3.67372 -1.36846,-5.30961 -0.55487,-6.1232 0.8136,-0.8136 1.1102,-0.6848 1.1102,0.48209 0,2.62022 11.30619,12.26989 18.13336,15.47655 5.97661,2.80717 8.15714,3.54476 18.48266,6.25199 2.26381,0.59354 8.01543,1.07917 12.78138,1.07917 6.09416,0 8.81034,0.3778 9.15396,1.27324 0.26872,0.70028 -1.72722,3.67087 -4.43543,6.60131 -2.70821,2.93044 -9.29738,11.8369 -14.64262,19.79212 -5.34523,7.95522 -11.98665,16.6966 -14.75871,19.42528 -9.06754,8.92564 -19.49163,12.36356 -45.37867,14.96615 -14.76834,1.48475 -24.38307,0.91666 -30.35204,-1.79336 -5.31793,-2.41445 -15.18751,-12.19196 -21.46497,-21.26474 -4.81096,-6.95326 -5.38518,-9.03618 -3.02993,-10.99086 1.93887,-1.60948 1.01348,-3.0095 -1.98899,-3.0095 -2.81728,0 -4.18249,1.71751 -2.61287,3.28713 2.06926,2.06926 1.13088,4.7514 -4.44759,12.71247 -12.50595,17.84733 -19.73776,21.99536 -38.36768,22.00701 -17.08635,0.0107 -36.25606,-3.14286 -45.39984,-7.46856 -6.59886,-3.12176 -16.92585,-12.94455 -22.64358,-21.53805 -2.37865,-3.575 -7.27213,-10.55 -10.87439,-15.5 -3.60226,-4.95 -6.68558,-9.1875 -6.85181,-9.41667 -0.16623,-0.22916 -0.56499,-0.15391 -0.88614,0.16723 -0.32114,0.32115 0.30608,3.20865 1.39383,6.41667 1.08775,3.20802 3.00647,9.20777 4.26381,13.33277 7.05078,23.13157 13.11109,34.7946 31.69666,61 10.39964,14.66336 21.11832,31.37104 20.63134,32.15899 -1.32456,2.14319 -3.73294,0.0715 -11.5172,-9.90698 -4.6115,-5.9114 -11.77627,-14.7989 -15.92171,-19.75 -11.45532,-13.68164 -19.53694,-27.09326 -25.91231,-43.00201 -0.44082,-1.1 -1.27322,-3.18337 -1.84976,-4.62972 -0.57655,-1.44634 -2.2202,-7.29634 -3.65255,-13 -1.43236,-5.70365 -3.01448,-11.72028 -3.51584,-13.37028 -0.50135,-1.65 -1.21424,-4.8 -1.5842,-7 -0.86937,-5.16978 -2.99451,-8.5 -5.42417,-8.5 -1.06144,0 -3.18857,-0.50603 -4.72695,-1.12451 -1.53838,-0.61848 -3.92205,-1.57767 -5.29705,-2.13153 -1.375,-0.55386 -4.1875,-1.87663 -6.25,-2.93948 -2.0625,-1.06285 -3.73941,-1.56616 -3.72646,-1.11846 0.10088,3.48888 7.67702,26.72021 10.37509,31.81398 0.87398,1.65 1.59182,3.45397 1.59521,4.00881 0.0108,1.77351 15.49752,31.40124 19.15497,36.64556 1.01815,1.4599 1.85119,2.91644 1.85119,3.23674 0,0.76118 15.65396,24.52455 20.82214,31.60889 2.2068,3.025 5.86298,7.975 8.12484,11 12.99845,17.38402 16.70743,22.40814 18.08652,24.49964 0.84343,1.27913 2.50328,3.60249 3.68855,5.16303 17.24405,22.70346 36.27795,51.45745 36.27795,54.80409 0,1.66075 -2.80736,-0.003 -6.27197,-3.71676 z m -3.72803,-151.14182 c 2.475,-0.7536 6.525,-2.40357 9,-3.66661 5.55019,-2.83237 18.5756,-14.21067 19.25888,-16.82352 0.39705,-1.51832 -1.30275,-3.13354 -8.12842,-7.724 -4.74676,-3.19232 -10.39896,-7.28693 -12.56046,-9.09914 -2.1615,-1.8122 -4.25301,-3.29491 -4.64779,-3.29491 -0.39479,0 -3.57629,-1.72569 -7.07001,-3.83487 -8.48976,-5.12533 -11.87494,-6.16513 -20.07125,-6.16513 -6.05392,0 -7.46665,0.37569 -11.28095,3 -2.39819,1.65 -4.77263,3 -5.27654,3 -3.71678,0 -17.22346,12.12921 -17.22346,15.46694 0,1.64318 16.56965,17.48326 22.25358,21.27375 4.06661,2.71193 10.84382,5.86842 17.24642,8.03253 4.39448,1.48536 13.34182,1.40554 18.5,-0.16504 z M 409.7242,725.51687 c 9.91731,-3.49231 17.51685,-8.12584 23.44362,-14.29384 3.75367,-3.90646 3.99139,-4.52385 4.34703,-11.28988 0.45828,-8.71902 2.59186,-13.38433 10.8192,-23.65744 7.01121,-8.75458 9.71755,-14.04783 11.17206,-21.85108 1.21766,-6.5326 0.65824,-20.73246 -0.87727,-22.26797 -0.7274,-0.7274 -0.65834,-1.85731 0.22693,-3.71325 0.69986,-1.46723 1.55115,-4.26922 1.89177,-6.22664 0.53593,-3.07987 0.14688,-4.11084 -2.89018,-7.65896 -1.93021,-2.25502 -3.50947,-4.42525 -3.50947,-4.82273 0,-1.53659 7.87358,0.43574 11.90904,2.98321 5.63641,3.55811 7.56148,2.28083 6.60929,-4.38528 -1.36643,-9.56608 -10.77706,-22.71575 -21.21488,-29.64398 -14.76266,-9.7989 -34.0428,-18.56497 -53.87445,-24.49503 -6.09616,-1.82287 -22.31678,-0.47645 -28.179,2.33904 -2.02962,0.97478 -2.25,1.79671 -2.25,8.39141 0,4.02093 0.63719,9.00739 1.41598,11.08102 0.77879,2.07363 2.20941,6.47024 3.17915,9.77024 2.16025,7.35125 7.91637,20.30274 10.09149,22.70621 1.44226,1.59369 3.79813,1.76526 23.70739,1.7266 20.11646,-0.0391 29.29159,0.73163 35.10599,2.94884 5.23505,1.99629 13.92978,6.74176 14.24868,7.77675 0.19698,0.63931 -2.20463,2.11679 -5.35949,3.29717 -21.44908,8.02513 -42.61436,8.18355 -70.38919,0.52686 -11.04487,-3.04474 -13.14209,-3.11961 -17.94908,-0.64075 -6.25316,3.22463 -11.72484,14.01498 -14.02525,27.65832 -2.11705,12.5559 -0.16117,59.03554 2.80355,66.62339 1.15233,2.94928 5.70644,6.02742 11.67078,7.88835 2.2,0.68643 4.9,1.6335 6,2.1046 1.1,0.47111 8.975,0.72021 17.5,0.55355 14.38774,-0.28126 16.13695,-0.5273 24.37631,-3.42873 z m 84.62369,76.21661 c -0.825,-0.17062 -7.6875,-1.07243 -15.25,-2.00401 -9.58975,-1.18131 -13.75,-2.07947 -13.75,-2.96851 0,-1.01161 7.37935,-1.2481 35.75,-1.14571 19.6625,0.0709 45.7625,-0.17497 58,-0.54651 12.2375,-0.37153 22.25,-0.34733 22.25,0.0538 0,0.73606 -14.25897,3.09744 -34.5,5.71343 -9.55591,1.23502 -47.71397,1.88737 -52.5,0.89753 z M 667.29406,629.69039 c -5.45354,-5.67374 -13.58839,-9.21171 -16.99208,-7.39011 -0.98476,0.52703 -4.41478,1.69095 -7.62228,2.5865 -21.47728,5.99659 -42.20844,7.02557 -58.83414,2.92022 -10.03978,-2.4791 -17.49767,-5.25332 -17.49767,-6.50885 0,-1.64014 4.95171,-5.04124 10,-6.86853 9.63628,-3.48799 15.34204,-4.1016 38.97811,-4.19176 l 23.11432,-0.0882 3.48858,3.06302 c 3.99215,3.50515 7.35905,3.86391 14.9912,1.59741 5.21793,-1.54956 12.40152,-7.94795 15.97631,-14.23002 3.43418,-6.03499 3.35775,-2.24281 -0.0902,4.47585 -1.89669,3.69587 -3.45073,6.83227 -3.45342,6.96977 -0.0246,1.25849 3.6196,-0.3594 6.49391,-2.88308 1.96261,-1.7232 3.7852,-2.91626 4.05021,-2.65126 0.56189,0.5619 -8.13814,8.87673 -11.06011,10.57042 -1.85197,1.07348 -1.507,1.59923 5.01111,7.6371 7.63513,7.07259 8.04129,8.60885 0.81782,3.09332 -2.50921,-1.91592 -4.94044,-3.24974 -5.40272,-2.96403 -0.46229,0.28571 0.0427,2.09197 1.12219,4.01392 3.26287,5.80927 2.00825,6.15357 -3.09112,0.84829 z M 542.90304,609.02571 c -0.21015,-0.6875 -0.61451,-2.6 -0.89858,-4.25 -0.28408,-1.65 -0.8132,-3.76675 -1.17583,-4.70389 -0.72984,-1.88611 10.41529,-13.40593 20.6933,-21.389 9.21158,-7.15476 8.94785,-5.04354 -0.45935,3.67726 -7.06491,6.54941 -9.38465,9.4648 -12.21769,15.35493 -1.92335,3.99881 -3.497,8.46084 -3.497,9.91563 0,2.68516 -1.74599,3.68144 -2.44485,1.39507 z m -2.30515,-30.97049 c -1.2375,-0.59683 -2.31472,-2.02887 -2.39383,-3.18232 -0.35367,-5.157 0.046,-9.03941 1.13114,-10.9885 2.7192,-4.88403 18.24777,-15.38882 28.82995,-19.50292 20.56065,-7.99351 35.03315,-11.05746 52.37069,-11.08735 19.1691,-0.0331 35.20372,5.2308 46.20044,15.16669 6.65422,6.0123 14.61161,15.15557 14.61161,16.78916 0,0.43708 -1.9125,-0.98052 -4.25,-3.15022 -5.65968,-5.25339 -10.80983,-8.19613 -19.25,-10.99924 -6.10413,-2.02728 -8.91973,-2.32056 -22,-2.29157 -16.16011,0.0358 -17.84946,0.33867 -36.93245,6.62115 -12.04287,3.96474 -30.47466,12.63516 -38.3286,18.03 -8.14095,5.59198 -14.76471,7.11467 -19.98895,4.59512 z m 2.1966,-40.86592 c -1.735,-2.80729 15.26888,-15.45253 30.5534,-22.7216 11.51817,-5.47785 19.79666,-7.9658 30.5,-9.16621 28.19836,-3.16253 43.26348,0.85974 57.25158,15.28573 8.06834,8.32091 9.66552,11.91004 2.79455,6.27979 -11.24297,-9.21277 -25.15661,-13.59131 -43.18894,-13.59131 -8.44285,0 -21.85604,1.50661 -26.35719,2.96053 -1.375,0.44413 -4.525,1.37049 -7,2.05857 -12.74154,3.54229 -30.10547,11.20531 -38.53995,17.00839 -4.84619,3.33427 -5.07424,3.4058 -6.01345,1.88611 z"
       id="path2987"
       inkscape:connector-curvature="0" />
  </g>
</svg>
