<svg xmlns="http://www.w3.org/2000/svg" width="512" height="513" fill="none"><path fill="url(#a)" d="M429.438 262.847v-21.752L280.492 83.769c-12.465-13.367-34.427-13.664-46.595 0S82.56 240.796 82.56 240.796v23.045L253.9 382.953l175.539-120.106Z"/><path fill="url(#b)" fill-opacity=".7" d="M429.438 262.847v-21.752L280.492 83.769c-12.465-13.367-34.427-13.664-46.595 0S82.56 240.796 82.56 240.796v23.045L253.9 382.953l175.539-120.106Z"/><path fill="url(#c)" fill-opacity=".7" d="M429.438 262.847v-21.752L280.492 83.769c-12.465-13.367-34.427-13.664-46.595 0S82.56 240.796 82.56 240.796v23.045L253.9 382.953l175.539-120.106Z"/><path fill="url(#d)" fill-opacity=".4" d="M429.438 262.847v-21.752L280.492 83.769c-12.465-13.367-34.427-13.664-46.595 0S82.56 240.796 82.56 240.796v23.045L253.9 382.953l175.539-120.106Z"/><path fill="url(#e)" fill-opacity=".9" d="M429.438 262.847v-21.752L280.492 83.769c-12.465-13.367-34.427-13.664-46.595 0S82.56 240.796 82.56 240.796v23.045L253.9 382.953l175.539-120.106Z"/><rect width="243.763" height="263.638" x="134.118" y="123.959" fill="url(#f)" rx="18.209"/><path fill="url(#g)" fill-rule="evenodd" d="M429.438 239.853c-.077 55.942-.19 111.884-.224 167.826-.01 17.494-14.103 31.669-31.597 31.65-75.621-.082-219.531-.19-282.995-.237-17.427-.012-31.448-14.112-31.505-31.538L82.56 239.36l173.327 125.084 173.55-124.591Z" clip-rule="evenodd"/><path fill="url(#h)" fill-rule="evenodd" d="M429.438 239.853c-.077 55.942-.19 111.884-.224 167.826-.01 17.494-14.103 31.669-31.597 31.65-75.621-.082-219.531-.19-282.995-.237-17.427-.012-31.448-14.112-31.505-31.538L82.56 239.36l173.327 125.084 173.55-124.591Z" clip-rule="evenodd"/><path fill="url(#i)" fill-rule="evenodd" d="M429.438 239.853c-.077 55.942-.19 111.884-.224 167.826-.01 17.494-14.103 31.669-31.597 31.65-75.621-.082-219.531-.19-282.995-.237-17.427-.012-31.448-14.112-31.505-31.538L82.56 239.36l173.327 125.084 173.55-124.591Z" clip-rule="evenodd"/><path fill="url(#j)" fill-rule="evenodd" d="M429.438 239.853c-.077 55.942-.19 111.884-.224 167.826-.01 17.494-14.103 31.669-31.597 31.65-75.621-.082-219.531-.19-282.995-.237-17.427-.012-31.448-14.112-31.505-31.538L82.56 239.36l173.327 125.084 173.55-124.591Z" clip-rule="evenodd"/><path fill="url(#k)" fill-rule="evenodd" d="M429.438 239.853c-.077 55.942-.19 111.884-.224 167.826-.01 17.494-14.103 31.669-31.597 31.65-75.621-.082-219.531-.19-282.995-.237-17.427-.012-31.448-14.112-31.505-31.538L82.56 239.36l173.327 125.084 173.55-124.591Z" clip-rule="evenodd"/><path fill="url(#l)" fill-opacity=".8" fill-rule="evenodd" d="M429.438 239.853c-.077 55.942-.19 111.884-.224 167.826-.01 17.494-14.103 31.669-31.597 31.65-75.621-.082-219.531-.19-282.995-.237-17.427-.012-31.448-14.112-31.505-31.538L82.56 239.36l173.327 125.084 173.55-124.591Z" clip-rule="evenodd"/><defs><linearGradient id="f" x1="377.881" x2="96.08" y1="84.485" y2="654.51" gradientUnits="userSpaceOnUse"><stop offset=".368" stop-color="#414141"/><stop offset=".789" stop-color="#3EF3FF"/></linearGradient><linearGradient id="g" x1="255.999" x2="255.999" y1="239.36" y2="448.197" gradientUnits="userSpaceOnUse"><stop offset=".099" stop-color="#424242"/><stop offset=".516" stop-color="#424242"/><stop offset=".667" stop-color="#393939"/><stop offset=".818" stop-color="#252525"/><stop offset=".88" stop-color="#121212"/><stop offset=".975" stop-color="#434343"/></linearGradient><linearGradient id="h" x1="242.738" x2="183.87" y1="300.349" y2="380.514" gradientUnits="userSpaceOnUse"><stop offset=".416" stop-color="#444" stop-opacity="0"/><stop offset=".444" stop-color="#7A7A7A"/><stop offset=".622" stop-color="#676767" stop-opacity="0"/></linearGradient><linearGradient id="i" x1="255.999" x2="255.999" y1="239.36" y2="448.197" gradientUnits="userSpaceOnUse"><stop offset=".099" stop-color="#424242" stop-opacity="0"/><stop offset=".483" stop-color="#424242" stop-opacity="0"/><stop offset=".651" stop-color="#393939"/><stop offset=".818" stop-color="#252525"/><stop offset=".88" stop-color="#121212"/><stop offset=".975" stop-color="#434343"/></linearGradient><linearGradient id="j" x1="196.062" x2="265.079" y1="345.004" y2="439.354" gradientUnits="userSpaceOnUse"><stop offset=".416" stop-color="#303030" stop-opacity="0"/><stop offset=".444" stop-color="#676767"/><stop offset=".588" stop-color="#676767" stop-opacity="0"/></linearGradient><linearGradient id="k" x1="255.999" x2="255.999" y1="239.36" y2="448.197" gradientUnits="userSpaceOnUse"><stop offset=".818" stop-color="#252525" stop-opacity="0"/><stop offset=".88" stop-color="#121212" stop-opacity=".91"/><stop offset=".947" stop-color="#353535"/></linearGradient><linearGradient id="l" x1="221.641" x2="75.029" y1="339.364" y2="339.364" gradientUnits="userSpaceOnUse"><stop offset=".835" stop-color="#434343" stop-opacity="0"/><stop offset=".912" stop-color="#232323"/><stop offset="1" stop-color="#434343" stop-opacity="0"/></linearGradient><radialGradient id="a" cx="0" cy="0" r="1" gradientTransform="rotate(44.82 29.665 391.063) scale(473.581 392.939)" gradientUnits="userSpaceOnUse"><stop offset=".062" stop-color="#DFB7FF"/><stop offset=".222" stop-color="#DFB7FF"/><stop offset=".331" stop-color="#44C1F7"/></radialGradient><radialGradient id="b" cx="0" cy="0" r="1" gradientTransform="rotate(1.828 -8110.383 4876.199) scale(95.4283 208.9)" gradientUnits="userSpaceOnUse"><stop offset=".216" stop-color="#0055FA"/><stop offset=".399" stop-color="#0055FA" stop-opacity="0"/></radialGradient><radialGradient id="c" cx="0" cy="0" r="1" gradientTransform="rotate(134.594 165.668 189.977) scale(101.168 221.465)" gradientUnits="userSpaceOnUse"><stop offset=".274" stop-color="#0055FA"/><stop offset=".399" stop-color="#0055FA" stop-opacity="0"/></radialGradient><radialGradient id="d" cx="0" cy="0" r="1" gradientTransform="matrix(-23.86658 -50.71677 157.27213 -74.01 231.364 84.86)" gradientUnits="userSpaceOnUse"><stop offset=".357" stop-color="#AC6BFF"/><stop offset=".462" stop-color="#AC6BFF" stop-opacity="0"/></radialGradient><radialGradient id="e" cx="0" cy="0" r="1" gradientTransform="matrix(-35.88936 54.19619 -168.06195 -111.29262 301.979 94.325)" gradientUnits="userSpaceOnUse"><stop offset=".357" stop-color="#AC6BFF"/><stop offset=".462" stop-color="#AC6BFF" stop-opacity="0"/></radialGradient></defs></svg>