<?xml version="1.0" encoding="UTF-8"?>
<svg version="1.1" xmlns="http://www.w3.org/2000/svg" width="2074" height="1812">
<path d="M0 0 C2.13910449 -0.00072921 4.27820318 -0.00289678 6.41730618 -0.00549722 C13.97418409 -0.01464446 21.5310448 -0.01884565 29.08792806 -0.01804566 C35.22011617 -0.01751347 41.35224051 -0.02458087 47.48441243 -0.03855348 C81.49123085 -0.1142264 115.42310876 -0.09702703 149.37284017 2.16725707 C150.58354177 2.24531585 151.79424336 2.32337462 153.04163289 2.40379882 C159.86770953 2.85217866 166.68322291 3.38333248 173.49784017 3.97975707 C174.4785851 4.06373748 175.45933003 4.14771789 176.46979451 4.23424315 C253.44886773 10.86369324 331.01831976 24.49689065 401.6662972 56.9270227 C404.07068518 58.0287989 406.48301206 59.10955109 408.90018392 60.18288207 C456.92643853 81.7808879 503.21316342 116.92287606 534.92459798 159.23903441 C536.51574525 161.35752416 538.12839467 163.45884815 539.74002767 165.56178832 C595.1442055 238.53035058 614.47153061 331.77212743 608.79715657 580.5443933 C601.18152332 635.55209625 590.00534475 689.87685807 578.98859334 744.27995849 C576.45241778 756.80572013 573.93577599 769.33510557 571.44705892 781.87038207 C571.15721041 783.32893455 570.86733472 784.78748163 570.57743001 786.24602294 C569.52773875 791.52834715 568.47844547 796.81074687 567.43320394 802.09395385 C566.75549304 805.51734206 566.0743615 808.94003174 565.39237142 812.36256957 C565.19858403 813.34695006 565.00479665 814.33133056 564.80513692 815.34554076 C564.62872167 816.2278839 564.45230641 817.11022704 564.27054524 818.01930785 C564.11991124 818.7791397 563.96927724 819.53897155 563.81407857 820.3218286 C563.37284017 822.16725707 563.37284017 822.16725707 562.37284017 824.16725707 C576.36915844 826.58242218 589.65846711 822.09007794 602.81034017 817.60475707 C603.45546559 817.38661345 604.10059102 817.16846984 604.7652657 816.94371581 C617.56069383 812.60732755 630.02490554 807.64850855 642.37284017 802.16725707 C642.97164998 801.90213317 643.57045979 801.63700927 644.18741536 801.36385131 C683.88083568 783.77723746 723.42431827 765.13721947 760.67948079 742.78151488 C763.25268687 741.23927063 765.83453631 739.71276178 768.41971517 738.19069457 C818.95554298 708.3222223 867.62360896 673.68952874 910.69583821 633.70070434 C911.96333268 632.54170991 913.24302008 631.39603067 914.52835774 630.25685668 C920.90107687 624.60021636 926.98607769 618.70891961 932.99661946 612.67384887 C934.56556377 611.09951553 936.13982575 609.53064118 937.71463704 607.96217895 C943.14523604 602.53510389 948.38546753 597.00792651 953.37284017 591.16725707 C954.78607567 589.62244447 956.20224426 588.08030382 957.62284017 586.54225707 C962.11751853 581.56084535 966.243183 576.34528036 970.34451985 571.04128051 C972.25581836 568.58177725 974.1917955 566.14761397 976.16654134 563.73879027 C983.4483049 554.84191407 990.04958263 545.63949119 996.37284017 536.04225707 C997.0866837 534.96426345 997.0866837 534.96426345 997.81494832 533.86449218 C1005.50651025 522.23623191 1012.87496184 510.51276958 1019.37284017 498.16725707 C1019.89104329 497.18837523 1020.40924642 496.2094934 1020.94315267 495.20094848 C1044.08969418 451.12241904 1058.12388051 404.45528078 1064.37284017 355.16725707 C1064.5056136 354.13423461 1064.63838704 353.10121215 1064.77518392 352.03688598 C1074.79588441 269.88684558 1054.33862275 184.31955917 998.68143392 60.82155395 C995.32614745 54.97872751 992.21519539 49.0592084 989.31034017 42.97975707 C988.95238362 42.23822387 988.59442708 41.49669066 988.22562337 40.73268676 C984.93192833 33.67374815 981.92759393 26.18325082 981.99784017 18.29225707 C981.99010579 17.4079602 981.98237142 16.52366332 981.97440267 15.61256957 C982.48661034 12.46902053 983.02325667 11.3552435 985.37284017 9.16725707 C988.41484527 8.73886062 991.10666321 8.56718704 994.15540147 8.56510043 C995.04945279 8.54908529 995.94350411 8.53307015 996.8646479 8.5165697 C999.83119258 8.46853763 1002.79719829 8.44907917 1005.76406026 8.43008971 C1007.85636956 8.40282391 1009.94865957 8.37403878 1012.04092807 8.34380323 C1017.44547179 8.27158965 1022.84987702 8.22484433 1028.25477085 8.18846121 C1031.18621594 8.16852619 1034.11759508 8.14459968 1037.04899645 8.11911058 C1049.06404872 8.01791419 1061.07882476 7.98303093 1073.09425516 7.96664372 C1078.37519617 7.95840689 1083.65612433 7.94481028 1088.93705583 7.93198752 C1099.27066304 7.90770186 1109.60427379 7.88816761 1119.93789383 7.87027723 C1132.18778631 7.848843 1144.43766579 7.82208485 1156.68754752 7.79529678 C1186.3723355 7.73067479 1216.05713921 7.67575633 1245.74194995 7.62294214 C1254.56584749 7.60724033 1263.38974452 7.59127329 1272.21364141 7.57520843 C1319.52156077 7.48913064 1366.82948263 7.40443284 1414.13741971 7.328632 C1425.95026849 7.30968903 1437.76311694 7.290543 1449.57596517 7.27126098 C1451.48956665 7.26814031 1451.48956665 7.26814031 1453.44182675 7.26495659 C1491.70476931 7.20236164 1529.96760008 7.11884768 1568.2304461 7.01297641 C1571.82654048 7.00304167 1575.42263492 6.9931329 1579.01872945 6.98325133 C1579.89058352 6.98085283 1580.76243759 6.97845433 1581.66071147 6.97598315 C1602.61808004 6.91862407 1623.57547882 6.87764874 1644.53289844 6.8441569 C1648.1714303 6.83833518 1651.80996185 6.83233428 1655.44849324 6.82622313 C1656.51161831 6.82444708 1656.51161831 6.82444708 1657.59622065 6.82263515 C1668.86608373 6.80334899 1680.13583302 6.76739107 1691.40562968 6.72481988 C1702.39934545 6.68362297 1713.39300244 6.66006439 1724.3868016 6.65524143 C1730.14139262 6.65221762 1735.89566588 6.64141365 1741.65016866 6.60819602 C1746.77033707 6.57870397 1751.88999407 6.57153081 1757.01022923 6.58346069 C1758.84199734 6.58365822 1760.67378964 6.57533126 1762.50547349 6.55776179 C1764.96741593 6.53530519 1767.42738796 6.54322464 1769.88933492 6.55925536 C1770.59890686 6.54537345 1771.3084788 6.53149154 1772.03955293 6.51718897 C1775.73840723 6.57726462 1777.10583961 6.89935927 1779.7609694 9.56341147 C1784.6840602 17.51626264 1786.9864315 26.08725329 1789.19705892 35.09303832 C1789.45705174 36.14435943 1789.71704457 37.19568053 1789.98491597 38.27885985 C1792.7755777 49.65999424 1795.34264127 61.08719305 1797.81034017 72.54225707 C1798.04617818 73.63676177 1798.28201619 74.73126647 1798.52500081 75.85893798 C1804.78611322 105.06139222 1809.76908417 134.30790501 1813.18534017 163.97975707 C1813.28498067 164.83850432 1813.38462117 165.69725158 1813.48728108 166.58202147 C1816.59743112 193.777958 1817.75495714 220.84505692 1817.69089818 248.19337249 C1817.68524972 250.64399826 1817.68243446 253.09461709 1817.67981648 255.54524779 C1817.64420828 278.47833787 1817.41879327 301.30358729 1814.62607503 324.09688354 C1814.36058748 326.26743141 1814.1063153 328.43912568 1813.85282063 330.61110473 C1805.67136819 399.746762 1785.67898496 466.01618248 1754.37284017 528.16725707 C1753.89105306 529.13195922 1753.40926595 530.09666137 1752.91287923 531.09059691 C1734.98972261 566.84150655 1712.00976157 600.88264186 1685.90799642 631.19850707 C1683.56796441 633.93876027 1681.3086355 636.72671227 1679.06034017 639.54225707 C1673.74846048 646.06395988 1667.96776515 652.12621327 1662.19022298 658.23219848 C1660.4300304 660.10636376 1658.69108565 661.99779127 1656.95877767 663.89772582 C1648.81726334 672.80038143 1640.25033001 681.13229604 1631.38309407 689.3098352 C1629.51055851 691.04000893 1627.64874475 692.78080856 1625.79080892 694.52663207 C1620.08920566 699.8680903 1614.27252361 705.00015616 1608.17752767 709.89381957 C1605.62994127 711.95885478 1603.13031451 714.06658859 1600.63993001 716.19948363 C1593.73793255 722.10609936 1586.64374742 727.72169015 1579.37284017 733.16725707 C1578.69543782 733.67595336 1578.01803548 734.18464965 1577.32010579 734.70876098 C1510.28966736 784.92158045 1437.19134158 820.58254019 1360.22203755 852.49565673 C1323.44099233 867.74782836 1287.11665852 883.6027522 1251.37284017 901.16725707 C1258.58634395 908.79505531 1267.29245329 911.82692654 1277.24784017 914.54225707 C1278.32694661 914.83769408 1279.40605306 915.13313109 1280.5178597 915.43752074 C1300.6704893 920.77187401 1321.27926931 924.16030319 1341.81815267 927.62038207 C1343.73167027 927.94289191 1343.73167027 927.94289191 1345.6838448 928.2719171 C1352.04021542 929.34071181 1358.39807584 930.39903833 1364.75907063 931.43996215 C1386.78818369 935.07332597 1408.72911995 939.28591699 1430.24784017 945.29225707 C1430.9089681 945.47501189 1431.57009603 945.65776671 1432.25125813 945.84605956 C1516.20745674 969.09586514 1597.99727634 1003.15828886 1688.37284017 1072.16725707 C1688.95839681 1072.65371703 1689.54395345 1073.14017699 1690.14725423 1073.64137816 C1705.04519756 1086.05073547 1719.83288908 1099.26211045 1732.47440267 1113.99147582 C1734.64029022 1116.47377905 1736.88160974 1118.87780852 1739.12284017 1121.29225707 C1744.37673524 1127.06201798 1749.20276605 1133.1049904 1753.94315267 1139.30055785 C1754.89757942 1140.54672366 1755.85593284 1141.78989172 1756.81815267 1143.03005004 C1816.48373097 1219.94520229 1848.010548 1320.08745233 1848.57596517 1421.48366332 C1848.58298494 1423.01792978 1848.59007178 1424.55219592 1848.59722066 1426.08646178 C1848.61664178 1430.96756443 1848.62165522 1435.84861969 1848.62284017 1440.72975707 C1848.62328202 1441.56118979 1848.62372388 1442.39262252 1848.62417912 1443.24925017 C1848.63087605 1467.2670376 1848.4551461 1491.11731316 1845.62607503 1514.9985559 C1845.35668907 1517.30557491 1845.10333633 1519.61397483 1844.85282063 1521.92311645 C1835.33180957 1609.16385208 1813.59038533 1696.76514451 1769.37284017 1807.16725707 C1767.87055939 1807.2681837 1766.36354028 1807.29929399 1764.85787755 1807.30296224 C1763.87405128 1807.30777179 1762.890225 1807.31258133 1761.87658581 1807.31753662 C1760.23255972 1807.31788381 1760.23255972 1807.31788381 1758.55532098 1807.31823802 C1757.39795878 1807.32238783 1756.24059657 1807.32653764 1755.04816279 1807.3308132 C1751.80677872 1807.34137507 1748.56542149 1807.34739417 1745.32402397 1807.35153688 C1741.80829875 1807.35708532 1738.29259096 1807.3683056 1734.77687758 1807.3787728 C1727.79046085 1807.39861698 1720.80404248 1807.41289288 1713.81760924 1807.42543122 C1708.00667382 1807.43600736 1702.1957474 1807.44890666 1696.38482022 1807.46329856 C1695.54772756 1807.46536879 1694.7106349 1807.46743902 1693.8481758 1807.46957198 C1692.14107093 1807.47379727 1690.43396605 1807.47802336 1688.72686118 1807.48225024 C1627.21513383 1807.63311377 1565.70314021 1807.7058562 1504.19126416 1807.76456316 C1494.90779509 1807.77344546 1485.62432636 1807.78266664 1476.34085774 1807.79201293 C1475.31504252 1807.79303763 1474.2892273 1807.79406234 1473.23232676 1807.79511809 C1439.9954833 1807.82856405 1406.75883049 1807.89704265 1373.52208936 1807.98476235 C1339.35732526 1808.07476705 1305.19266427 1808.13212797 1271.02778091 1808.14749898 C1266.19949133 1808.14968013 1261.37120201 1808.15221899 1256.54291272 1808.15496802 C1255.59266531 1808.15549575 1254.64241789 1808.15602348 1253.6633751 1808.1565672 C1238.38318885 1808.16598055 1223.1032813 1808.20943974 1207.82320311 1808.26553862 C1192.452579 1808.32119821 1177.08225232 1808.34006529 1161.7115354 1808.32178404 C1152.58559257 1808.31202236 1143.46069935 1808.32992889 1134.33493133 1808.38809571 C1128.22894525 1808.42423991 1122.12365629 1808.42362234 1116.01763796 1808.39389937 C1112.54435519 1808.37801823 1109.07305792 1808.37735504 1105.59997822 1808.42176767 C1088.80616327 1808.59810974 1077.16096009 1807.04015203 1063.37284017 1797.16725707 C1061.55743422 1796.00535595 1059.73942647 1794.84747704 1057.91580892 1793.69850707 C1056.4574443 1792.69755539 1055.00536061 1791.6873784 1053.56034017 1790.66725707 C1052.77248128 1790.11884154 1051.98462239 1789.57042602 1051.17288899 1789.00539184 C1030.28487379 1774.36354293 1009.96655874 1757.61677866 993.37284017 1738.16725707 C992.53752767 1737.21979613 991.70221517 1736.2723352 990.84159017 1735.29616332 C978.39228353 1721.05868355 967.85027701 1705.50802078 958.37284017 1689.16725707 C957.68858968 1687.99622436 957.68858968 1687.99622436 956.99051595 1686.80153441 C921.81632371 1626.19161198 907.41010389 1552.73896488 907.16971517 1483.20631957 C907.16268568 1481.81941743 907.15559894 1480.43251558 907.14845967 1479.045614 C907.12904533 1474.62782362 907.12402323 1470.2100858 907.12284017 1465.79225707 C907.12239831 1465.03660712 907.12195645 1464.28095717 907.12150121 1463.50240874 C907.11377943 1438.28106869 907.74409491 1413.26920936 910.37284017 1388.16725707 C910.4600533 1387.3216925 910.54726644 1386.47612792 910.63712239 1385.60494018 C912.70480945 1365.66387654 915.30770333 1345.80088925 918.31034017 1325.97975707 C918.41963857 1325.24995635 918.52893697 1324.52015563 918.64154744 1323.76823974 C919.47952607 1318.22158927 920.40733325 1312.69304925 921.37284017 1307.16725707 C921.63901143 1305.62650008 921.63901143 1305.62650008 921.91055989 1304.05461669 C926.07164801 1280.34695698 931.97045169 1257.1246849 937.95485234 1233.82292724 C939.30260042 1228.56582992 940.63932172 1223.30593183 941.97659993 1218.04616332 C943.85272157 1210.66970151 945.73097529 1203.2937925 947.61302972 1195.91884208 C965.07646693 1129.42517555 965.07646693 1129.42517555 979.43534017 1062.22975707 C979.63989827 1061.10923949 979.84445638 1059.98872191 980.05521321 1058.83424926 C981.02878332 1053.19079816 981.58644607 1047.89327332 981.37284017 1042.16725707 C906.66484064 1040.72430343 835.37557018 1068.16501513 769.67996907 1101.98708129 C766.92265503 1103.39754225 764.1530755 1104.78282294 761.38455892 1106.17116332 C711.19089884 1131.53793127 664.86181902 1164.26374552 623.37284017 1202.16725707 C622.41377767 1203.03350707 621.45471517 1203.89975707 620.46659017 1204.79225707 C613.98621504 1210.6770282 607.69870067 1216.73865572 601.49784017 1222.91725707 C600.44584432 1223.96236449 600.44584432 1223.96236449 599.37259603 1225.0285852 C595.40516347 1229.00780454 591.61919725 1233.09038124 587.94950032 1237.34547973 C585.85007692 1239.77129227 583.67464606 1242.12338302 581.49784017 1244.47975707 C576.57706715 1249.88223227 571.94583527 1255.46963288 567.37284017 1261.16725707 C566.44894568 1262.29924493 565.52443727 1263.43073194 564.59940267 1264.56178832 C541.48158831 1292.9574143 521.75028533 1323.97667887 504.37284017 1356.16725707 C503.90909993 1357.02093871 503.4453597 1357.87462035 502.96756673 1358.75417113 C462.79540505 1433.00692422 440.35967326 1516.71732687 426.37284017 1649.16725707 C426.33080464 1649.85564666 426.28876912 1650.54403625 426.24545979 1651.25328612 C425.32134305 1666.64824045 425.15346994 1682.04086059 425.13260579 1697.4594934 C425.12821208 1700.22134582 425.11424627 1702.98288744 425.09159017 1705.74464965 C424.9574247 1722.45622871 425.52491164 1738.66737248 428.37284017 1755.16725707 C428.70297199 1757.26199386 429.03153564 1759.35697969 429.35721517 1761.45241332 C429.48861897 1762.26299193 429.62002278 1763.07357055 429.75540853 1763.90871215 C433.25468455 1786.01344117 433.25468455 1786.01344117 427.64627767 1795.46022582 C421.56044723 1803.61822551 413.30758301 1806.22200569 403.49784017 1807.78444457 C370.99459136 1811.84034163 337.68111315 1812.30810815 304.97490788 1812.43279076 C302.87214871 1812.4408775 300.76939634 1812.4500591 298.66664243 1812.45940757 C288.62915474 1812.50271609 278.59168579 1812.52552795 268.55411696 1812.53887582 C266.11902978 1812.54226237 263.68394458 1812.54636493 261.24885869 1812.5505693 C189.66453147 1812.66615091 118.21046231 1810.49670042 46.68220735 1807.87183452 C40.24579903 1807.63566963 33.80934655 1807.40073556 27.37284017 1807.16725707 C26.38829225 1807.13149188 25.40374433 1807.09572669 24.38936162 1807.05887771 C-6.48974422 1805.94750725 -37.37904809 1805.979397 -68.27415103 1805.98214442 C-73.25113765 1805.98184413 -78.22807006 1805.97366299 -83.20504069 1805.96144652 C-113.217827 1805.88932208 -143.17424967 1805.96951655 -173.15388846 1807.60370326 C-203.53194865 1809.24999186 -203.53194865 1809.24999186 -216.32637858 1799.43678832 C-222.77409949 1793.07664257 -226.40386999 1788.50967162 -226.55610938 1779.19174837 C-226.53949232 1778.05103206 -226.52287526 1776.91031574 -226.50575465 1775.73503226 C-226.5156951 1774.49816468 -226.52563555 1773.2612971 -226.53587723 1771.98694868 C-226.55638596 1768.55315994 -226.54559259 1765.12206075 -226.52159166 1761.68846672 C-226.50316031 1757.93968048 -226.52550438 1754.19109584 -226.54257956 1750.44233373 C-226.5669941 1743.84693214 -226.5653294 1737.25193262 -226.54677235 1730.65651786 C-226.51912042 1720.78303959 -226.5318014 1710.9098937 -226.55236691 1701.03641278 C-226.5862238 1684.20993176 -226.5867636 1667.3835956 -226.56926417 1650.55709624 C-226.55164192 1633.50159404 -226.54917451 1616.44619065 -226.56526065 1599.3906858 C-226.56676768 1597.77577093 -226.56676768 1597.77577093 -226.56830516 1596.12823153 C-226.57244634 1591.74348337 -226.57669427 1587.35873534 -226.581078 1582.97398742 C-226.62433554 1539.66876473 -226.62606891 1496.36361648 -226.60887779 1453.05837992 C-226.59422338 1416.1293935 -226.5922133 1379.20043387 -226.60280871 1342.27144599 C-226.6034981 1339.80022502 -226.60418479 1337.32900405 -226.60486878 1334.85778309 C-226.60762551 1324.92742588 -226.61042708 1314.99706869 -226.61330084 1305.06671152 C-226.62127696 1277.30592605 -226.62680066 1249.54514035 -226.63036513 1221.78435397 C-226.63052762 1220.52011019 -226.6306901 1219.25586641 -226.63085751 1217.95331221 C-226.63585023 1177.65858765 -226.62987479 1137.36387222 -226.61657691 1097.06914973 C-226.61614761 1095.76189172 -226.61571831 1094.4546337 -226.615276 1093.1077618 C-226.60827987 1071.87761913 -226.60080016 1050.64747662 -226.59327315 1029.41733412 C-226.5688836 960.54465577 -226.56096588 891.67202755 -226.61519694 776.79298949 C-226.62602473 755.57246674 -226.63676034 734.35194395 -226.64689612 713.13142085 C-226.64783447 711.17159138 -226.64783447 711.17159138 -226.64879177 709.17216939 C-226.6679376 668.91923422 -226.67719532 628.66630677 -226.67585158 588.41336703 C-226.67578925 586.51840732 -226.67578925 586.51840732 -226.67572566 584.5851656 C-226.67470412 556.85603653 -226.67116394 529.12690822 -226.66533925 501.39777976 C-226.66326784 491.47652013 -226.66133733 481.55526048 -226.65945626 471.63400081 C-226.65898401 469.16575973 -226.65850143 466.69751866 -226.65800846 464.22927758 C-226.65019017 424.86300464 -226.6644837 385.4967791 -226.68926314 346.13051445 C-226.71467639 305.39490615 -226.71023829 264.65939735 -226.67176323 223.92379802 C-226.66774946 219.5533412 -226.66386248 215.1828843 -226.66007495 210.81242728 C-226.65913362 209.7398131 -226.65819229 208.66719892 -226.65722244 207.56208128 C-226.64301155 190.54892031 -226.65566188 173.53588895 -226.67936017 156.52274301 C-226.70207293 139.81097334 -226.69638903 123.09941602 -226.66008351 106.38766806 C-226.63962763 96.57894318 -226.6412132 86.77080952 -226.67483988 76.9621176 C-226.69497008 70.4566138 -226.68634851 63.95156772 -226.65385597 57.44611469 C-226.63622395 53.75237632 -226.63122217 50.05981576 -226.66150576 46.36613287 C-226.69373512 42.40152313 -226.66440415 38.43874539 -226.62880248 34.47413272 C-226.64804655 33.33102566 -226.66729062 32.1879186 -226.68711785 31.01017193 C-226.57804224 25.1147598 -226.00905262 21.88854468 -221.75072489 17.64398131 C-220.70236835 16.76527568 -220.70236835 16.76527568 -219.63283289 15.86881842 C-217.60452447 14.14805381 -216.18603211 12.39219489 -214.64847636 10.23279357 C-212.23936641 7.38476187 -211.65768471 7.17470321 -207.75098491 6.22171569 C-206.26388718 6.15282002 -204.77478673 6.12075373 -203.28609538 6.11867309 C-202.4637396 6.08982213 -201.64138381 6.06097117 -200.79410815 6.03124595 C-198.05478444 5.9423251 -195.31678676 5.90096258 -192.57637858 5.85866332 C-190.6166174 5.80305734 -188.65695317 5.74393854 -186.69739604 5.68155456 C-182.51194858 5.55210675 -178.32652919 5.44012592 -174.14028239 5.33992553 C-167.66001916 5.17785551 -161.18451097 4.93563585 -154.70772624 4.67067504 C-153.62871987 4.62660333 -152.54971351 4.58253161 -151.43800998 4.5371244 C-149.24036333 4.44713072 -147.04272325 4.35697658 -144.84508967 4.26666427 C-139.24615697 4.0399651 -133.64663171 3.82923783 -128.04708171 3.61842895 C-125.78463029 3.53306776 -123.52217911 3.44769991 -121.25972819 3.36232543 C-120.13631022 3.31996764 -119.01289226 3.27760985 -117.85543132 3.2339685 C-113.2797853 3.06088146 -108.70422339 2.88562451 -104.12865996 2.71036983 C-99.5937851 2.53693128 -95.05886207 2.3647783 -90.52392459 2.1929853 C-88.4215869 2.11322601 -86.31926179 2.033134 -84.21695209 1.9526403 C-77.02079716 1.6776434 -69.82420717 1.41776968 -62.62715983 1.16725707 C-61.38121358 1.12316018 -60.13526732 1.07906329 -58.85156512 1.03363013 C-39.23150297 0.34968875 -19.63382923 0.00379744 0 0 Z " fill="#007782" transform="translate(225.62715983390808,-0.16725707054138184)"/>
</svg>
